<?xml version="1.0" standalone="no"?>
<!DOCTYPE svg PUBLIC "-//W3C//DTD SVG 20010904//EN"
 "http://www.w3.org/TR/2001/REC-SVG-20010904/DTD/svg10.dtd">
<svg version="1.0" xmlns="http://www.w3.org/2000/svg"
 width="3770.000000pt" height="3500.000000pt" viewBox="0 0 3770.000000 3500.000000"
 preserveAspectRatio="xMidYMid meet">

<g transform="translate(0.000000,3500.000000) scale(0.100000,-0.100000)"
fill="#000000" stroke="none">
<path d="M5115 32505 c-278 -61 -489 -271 -549 -545 -15 -69 -16 -1171 -14
-14500 l3 -14425 23 -65 c46 -127 92 -201 182 -291 71 -71 101 -94 180 -133
52 -25 127 -53 165 -61 106 -22 27394 -22 27500 0 39 8 113 36 165 61 79 39
109 62 180 133 90 90 136 164 182 291 l23 65 3 14425 c2 13298 1 14431 -14
14500 -53 245 -234 445 -479 528 l-80 27 -13705 2 c-11341 1 -13715 -1 -13765
-12z m25135 -1350 l0 -565 -145 0 -145 0 0 356 0 356 -35 -4 c-32 -4 -35 -2
-36 22 -1 23 -1 176 1 258 0 22 5 32 16 32 25 0 74 56 74 84 l0 26 135 0 135
0 0 -565z m810 561 c0 -1 -29 -63 -64 -137 -35 -74 -73 -154 -84 -179 -11 -25
-102 -216 -201 -425 l-180 -380 -106 -3 c-59 -1 -105 1 -102 5 2 4 122 259
267 566 l263 557 104 0 c56 0 103 -2 103 -4z m410 -561 l0 -565 -145 0 -145 0
0 355 0 355 -35 0 c-34 0 -35 1 -36 43 -5 283 -5 267 14 267 28 0 77 54 77 84
l0 26 135 0 135 0 0 -565z m780 420 l0 -145 -175 0 -175 0 0 -45 0 -45 38 0
c54 0 151 -19 187 -37 43 -22 103 -82 126 -125 27 -53 40 -122 41 -219 0 -107
-19 -178 -72 -256 -69 -104 -149 -145 -280 -144 -98 0 -170 22 -238 71 -58 44
-142 163 -142 203 0 8 48 44 107 80 l108 67 22 -45 c13 -25 36 -51 53 -60 39
-20 93 -19 112 3 21 23 31 75 23 112 -13 58 -20 60 -206 60 -154 0 -169 2
-170 18 0 16 0 644 1 650 0 1 144 2 320 2 l320 0 0 -145z m-24701 -2606 l541
-1265 3 -432 c1 -238 0 -432 -3 -432 -3 0 -251 577 -552 1281 l-548 1280 0
432 c0 240 4 425 9 417 5 -8 252 -585 550 -1281z m-1924 759 c3 -13 19 -86 35
-163 17 -77 44 -201 60 -275 16 -74 97 -450 180 -835 l151 -700 -71 -325 c-80
-360 -80 -363 -85 -358 -2 2 -83 359 -179 793 -96 435 -229 1034 -295 1333
-67 299 -121 545 -121 548 0 2 72 4 160 4 157 0 160 0 165 -22z m865 13 c0 -9
-251 -1144 -349 -1581 -34 -151 -51 -208 -55 -190 -20 80 -146 676 -146 693 0
12 25 136 55 276 31 141 78 360 106 486 27 127 54 251 60 278 l11 47 159 0
c90 0 159 -4 159 -9z m360 -1191 l0 -1200 -150 0 -150 0 0 1200 0 1200 150 0
150 0 0 -1200z m2252 1167 c113 -55 180 -177 214 -387 13 -79 16 -213 16 -785
0 -712 -2 -754 -43 -903 -25 -94 -50 -143 -102 -199 -78 -85 -89 -88 -357 -91
l-235 -3 2 208 c2 114 3 232 3 261 l0 52 193 0 c223 0 220 -1 237 91 5 32 8
286 7 619 -3 592 -5 618 -47 640 -11 6 -167 10 -389 10 l-370 0 -14 48 c-8 26
-36 124 -62 217 -27 94 -51 174 -56 179 -4 4 -7 -382 -7 -858 0 -477 -2 -869
-4 -871 -2 -2 -68 147 -147 331 l-144 335 1 517 c0 284 1 541 1 570 l1 53 623
-3 622 -3 57 -28z m678 -1167 l0 -1200 -150 0 -150 0 0 1200 0 1200 150 0 150
0 0 -1200z m800 1183 c4 -137 4 -487 0 -494 -3 -5 -75 -10 -159 -11 l-154 -3
-21 -28 c-21 -28 -21 -36 -24 -631 -3 -645 -1 -670 46 -691 22 -10 22 -10 22
-267 l0 -258 -34 0 c-119 0 -234 107 -284 266 -46 148 -50 218 -51 899 -1 664
4 793 39 923 47 172 138 278 260 303 19 4 108 7 198 8 148 1 162 -1 162 -16z
m217 -19 c108 -52 176 -176 209 -382 13 -80 22 -447 15 -602 -1 -13 -22 -15
-143 -12 -78 1 -143 4 -145 6 -2 1 -4 97 -6 212 -3 225 -13 275 -56 289 -21 6
-21 11 -21 267 l0 260 48 -6 c26 -4 71 -18 99 -32z m1026 -49 c-1 -44 -2 -160
-2 -257 l-1 -178 -148 0 c-167 0 -184 -6 -202 -68 -15 -55 -13 -1196 3 -1242
7 -19 22 -39 35 -45 22 -10 22 -10 22 -267 l0 -258 -34 0 c-118 0 -226 99
-280 258 -49 142 -51 186 -51 957 0 703 1 722 22 818 46 209 139 330 273 358
19 4 109 6 200 5 l165 -1 -2 -80z m214 49 c112 -54 180 -184 213 -408 16 -109
16 -1398 1 -1513 -31 -221 -93 -342 -210 -411 -45 -26 -50 -27 -243 -30 l-198
-4 0 261 0 261 158 0 c185 0 187 1 202 96 5 33 8 313 7 624 -2 513 -4 568 -20
597 -9 17 -26 34 -37 38 -19 6 -20 15 -20 267 l0 260 48 -6 c26 -4 71 -18 99
-32z m3013 -224 l0 -260 -515 0 -514 0 -19 63 c-10 34 -38 133 -63 219 -24 87
-47 158 -50 158 -3 0 -6 -84 -7 -187 0 -104 -1 -203 -1 -220 l-1 -33 -376 -2
-377 -3 -21 -28 c-20 -27 -21 -41 -21 -222 0 -181 1 -195 21 -222 20 -26 26
-28 108 -31 l86 -3 0 -259 0 -260 -92 0 c-55 0 -115 7 -150 16 -122 35 -208
154 -250 349 -20 91 -22 128 -22 410 0 280 2 320 21 408 46 209 139 330 273
358 19 4 470 7 1003 8 l967 1 0 -260z m441 -637 c1 -952 1 -957 47 -978 22
-10 22 -12 22 -267 l0 -258 -34 0 c-121 0 -230 103 -282 265 -51 161 -53 198
-53 1203 l-1 932 150 0 150 0 1 -897z m1821 864 c113 -56 180 -175 214 -385
13 -82 16 -204 15 -780 0 -432 -4 -712 -11 -762 -29 -214 -94 -340 -209 -408
-46 -27 -47 -27 -278 -30 l-231 -3 -4 88 c-2 48 -2 166 0 261 l3 172 193 0
c174 0 194 2 209 18 34 38 38 120 35 695 -4 589 -6 615 -48 637 -11 6 -167 10
-389 10 l-370 0 -20 68 c-11 37 -43 148 -71 247 -29 99 -53 182 -55 184 -2 2
-4 -417 -4 -930 0 -941 -2 -1008 -37 -1144 -34 -129 -104 -233 -189 -278 -36
-20 -58 -22 -237 -25 l-198 -4 0 261 0 261 158 0 c183 0 185 1 201 87 6 29 10
383 10 839 1 434 1 826 1 872 l0 83 628 -3 627 -3 57 -28z m668 -1167 l0
-1200 -150 0 -150 0 0 1200 0 1200 150 0 150 0 0 -1200z m800 940 l0 -259
-156 -3 -157 -3 -21 -28 c-21 -28 -21 -36 -24 -630 -3 -645 -1 -670 46 -692
22 -10 22 -13 22 -269 l0 -259 -47 5 c-136 13 -240 129 -286 318 -34 140 -39
270 -34 955 3 636 5 675 25 763 46 205 139 326 272 353 19 4 108 7 198 8 l162
1 0 -260z m197 234 c115 -47 191 -175 229 -386 14 -81 16 -182 16 -778 0 -457
-4 -712 -11 -767 -31 -220 -94 -343 -210 -411 -45 -26 -50 -27 -243 -30 l-198
-4 0 261 0 261 158 0 c187 0 187 0 203 103 6 39 9 279 7 618 -3 490 -5 558
-20 591 -9 20 -26 39 -37 43 -21 6 -21 11 -21 259 0 139 3 256 7 260 9 9 78
-2 120 -20z m1483 -234 l0 -260 -376 -2 -377 -3 -21 -28 c-20 -27 -21 -41 -21
-222 0 -181 1 -195 21 -222 20 -26 26 -28 108 -31 l86 -3 0 -261 0 -260 -117
4 c-102 4 -125 8 -169 30 -102 53 -169 161 -207 335 -19 89 -21 127 -21 408 0
279 2 320 21 408 46 209 139 330 273 358 19 4 207 7 418 8 l382 1 0 -260z
m-13310 -685 l140 -326 0 -564 0 -565 -150 0 -150 0 0 908 c1 611 4 901 11
890 5 -10 73 -164 149 -343z m1343 256 l37 -1 0 -855 0 -855 -150 0 -150 0 0
853 c0 470 2 856 4 858 2 2 53 3 113 2 59 -1 125 -2 146 -2z m6187 -99 c0 -53
0 -410 1 -792 0 -382 0 -723 0 -757 l-1 -63 -145 0 -145 0 -1 138 c-3 738 2
1566 10 1571 5 3 70 5 145 3 l136 -3 0 -97z m2053 99 c4 -1 7 -386 7 -856 l0
-855 -150 0 -150 0 0 855 0 854 128 3 c70 2 134 2 142 1 8 -1 18 -2 23 -2z
m-3113 -357 c39 -12 66 -29 105 -67 111 -112 157 -287 157 -598 -1 -234 -28
-403 -83 -511 -28 -55 -95 -125 -144 -151 -39 -21 -51 -22 -457 -25 l-418 -3
0 261 0 260 378 0 c436 0 405 -7 423 100 12 76 -2 183 -27 211 -14 16 -32 19
-101 19 l-83 0 0 38 c-1 208 -1 469 -1 475 2 14 196 7 251 -9z m6580 0 c39
-12 66 -29 105 -67 61 -61 97 -133 127 -254 21 -80 23 -112 23 -348 0 -236 -2
-268 -23 -348 -40 -158 -105 -261 -197 -310 -39 -21 -51 -22 -457 -25 l-418
-3 0 261 0 260 378 0 c437 0 406 -8 423 105 13 77 -1 177 -27 206 -13 14 -34
19 -102 21 l-86 3 1 70 c1 39 1 154 2 258 l1 187 98 0 c61 0 119 -6 152 -16z
m-9180 -366 c4 -377 -1 -515 -20 -610 -28 -134 -63 -218 -118 -279 -79 -88
-97 -93 -324 -97 l-198 -4 0 261 0 261 158 0 c141 0 161 2 175 18 21 23 38
110 37 187 -1 33 -1 115 -1 183 l1 122 145 0 145 0 0 -42z m-3596 -1588 c106
-40 179 -113 211 -211 10 -28 15 -52 12 -55 -4 -4 -251 -74 -261 -74 -2 0 -6
12 -9 28 -9 45 -44 82 -78 82 -69 0 -106 -96 -96 -245 9 -125 35 -175 92 -175
36 0 67 28 82 75 6 17 14 29 19 29 5 -1 64 -16 132 -34 140 -38 136 -33 89
-130 -53 -113 -151 -178 -281 -189 -253 -23 -410 138 -422 434 -6 162 29 276
112 365 84 89 149 119 266 120 54 0 94 -6 132 -20z m1909 -13 c122 -56 189
-164 209 -339 10 -89 9 -120 -4 -202 -37 -223 -149 -334 -349 -344 -109 -5
-179 14 -248 68 -86 68 -125 155 -143 316 -14 120 3 256 43 339 41 88 131 161
226 185 69 17 204 6 266 -23z m3065 -2 c77 -35 143 -104 171 -181 12 -30 21
-59 21 -64 0 -5 -19 -14 -42 -20 -36 -10 -97 -27 -200 -56 -13 -4 -22 5 -33
33 -23 54 -43 73 -81 73 -66 0 -100 -95 -92 -252 6 -94 26 -144 67 -165 29
-14 75 0 96 30 21 30 19 37 -10 37 -25 0 -25 1 -25 90 l0 90 165 0 165 0 0
-240 0 -240 -106 0 c-96 0 -106 2 -111 19 -5 18 -6 18 -39 -4 -40 -27 -122
-40 -185 -30 -167 28 -275 160 -300 367 -22 177 14 326 102 423 91 99 155 127
284 122 73 -3 102 -8 153 -32z m-5622 -420 c62 -236 113 -433 114 -437 0 -5
-65 -8 -144 -8 l-144 0 -8 48 -9 47 -102 3 -101 3 -7 -51 -7 -50 -124 0 c-68
0 -124 2 -124 5 0 2 24 98 54 212 30 115 80 305 111 423 31 118 58 221 60 228
4 10 41 12 162 10 l157 -3 112 -430z m1604 320 l0 -114 -102 -3 -103 -3 -2
-265 c-1 -146 -2 -291 -2 -322 l-1 -58 -135 0 -135 0 0 325 0 325 -100 0 -100
0 0 115 0 115 340 0 340 0 0 -115z m341 83 c3 -27 3 -627 0 -800 l-1 -48 -135
0 -135 0 0 440 0 440 134 0 134 0 3 -32z m1260 -137 l94 -169 3 169 2 169 115
0 115 0 1 -162 c0 -218 0 -623 0 -676 l-1 -43 -136 3 -137 3 -91 162 -91 162
-3 -164 -2 -165 -120 0 -120 0 0 440 0 440 138 0 139 0 94 -169z m1440 99 c1
-38 1 -81 1 -95 0 -71 18 -65 -185 -65 l-184 0 1 -62 1 -63 168 -3 167 -2 1
-43 c1 -23 2 -73 3 -112 l1 -70 -172 -3 -172 -2 0 -88 c0 -48 0 -113 0 -144
l-1 -58 -135 0 -135 0 0 440 0 440 320 0 320 0 1 -70z m359 -62 c0 -73 1 -261
1 -418 0 -157 0 -295 0 -307 -1 -23 -3 -23 -136 -23 l-135 0 0 440 0 440 135
0 135 0 0 -132z m1160 -172 c0 -280 1 -306 18 -326 20 -24 75 -31 94 -12 21
21 27 100 26 362 l-1 275 137 3 137 3 -3 -333 c-3 -287 -6 -339 -21 -377 -26
-68 -80 -126 -145 -158 -53 -26 -65 -28 -177 -28 -111 0 -124 2 -171 27 -28
15 -69 47 -91 72 -69 78 -73 104 -73 472 l0 324 135 0 135 0 0 -304z m1041
292 c66 -22 116 -65 146 -125 25 -52 28 -68 28 -158 0 -92 -2 -104 -30 -154
-16 -30 -44 -63 -62 -75 -18 -12 -33 -25 -33 -30 0 -5 32 -78 70 -163 39 -85
70 -156 70 -159 0 -2 -68 -3 -152 -2 l-152 3 -60 147 c-34 81 -67 148 -73 148
-10 0 -13 -37 -13 -150 l0 -150 -135 0 -135 0 0 440 0 440 249 0 c162 0 260
-4 282 -12z m901 -95 c2 -60 2 -111 0 -115 -2 -5 -86 -8 -188 -8 l-185 0 3
-47 3 -48 168 -3 167 -2 1 -48 c1 -74 1 -115 0 -149 l-1 -33 -171 0 -170 0 3
-47 3 -48 165 -2 c91 -1 177 -2 193 -2 l27 -1 0 -110 0 -110 -52 -1 c-29 -1
-100 -1 -158 -1 -58 1 -183 1 -277 1 l-173 1 0 440 0 440 319 0 320 0 3 -107z
m10574 -718 c-1 -8 -5 -17 -8 -21 -5 -4 -4 16 1 34 3 9 9 -1 7 -13z m-999 -1
c-3 -3 -12 -4 -19 -1 -8 3 -5 6 6 6 11 1 17 -2 13 -5z m-84 -29 c-3 -9 -8 -14
-10 -11 -3 3 -2 9 2 15 9 16 15 13 8 -4z m-23 1 c0 -2 -8 -10 -17 -17 -16 -13
-17 -12 -4 4 13 16 21 21 21 13z m1190 -6 c0 -5 -2 -10 -4 -10 -3 0 -8 5 -11
10 -3 6 -1 10 4 10 6 0 11 -4 11 -10z m-36 -21 c-4 -8 1 -9 17 -4 13 4 21 4
16 0 -4 -5 -17 -9 -30 -10 -12 -2 -21 -8 -19 -14 1 -7 -2 -9 -8 -6 -8 5 -6 13
6 26 19 21 29 25 18 8z m-1143 -23 c5 3 9 0 9 -6 0 -7 -7 -9 -16 -6 -9 3 -18
6 -20 6 -3 0 -2 5 2 12 6 9 9 9 12 0 2 -7 8 -10 13 -6z m956 -3 c-4 -3 -1 -13
6 -22 10 -14 10 -14 -4 -4 -12 10 -18 10 -27 1 -7 -7 -12 -8 -12 -4 0 5 8 15
18 22 18 14 30 19 19 7z m-890 -65 c-3 -8 -6 -5 -6 6 -1 11 2 17 5 13 3 -3 4
-12 1 -19z m1003 11 c0 -4 -7 -9 -15 -13 -9 -3 -15 0 -15 8 0 7 7 13 15 13 8
0 15 -4 15 -8z m-166 -15 c3 -9 2 -12 -5 -9 -5 4 -16 1 -24 -5 -10 -8 -15 -9
-15 -2 0 8 24 29 36 32 1 0 5 -7 8 -16z m-584 -34 c8 -5 12 -11 10 -14 -3 -2
-14 2 -24 10 -22 15 -10 19 14 4z m540 -21 c0 -3 -7 -6 -15 -6 -8 0 -12 4 -9
9 3 4 -1 8 -8 8 -10 0 -9 3 2 10 13 8 29 -3 30 -21z m-680 -9 c0 -5 -8 -10
-17 -10 -15 0 -16 2 -3 10 19 12 20 12 20 0z m775 -20 c-3 -5 -13 -6 -21 -3
-12 4 -13 8 -3 14 15 9 32 2 24 -11z m-738 -5 c0 -8 -7 -15 -15 -15 -12 0 -12
3 -2 15 7 8 13 15 15 15 1 0 2 -7 2 -15z m712 -28 c0 -9 -2 -8 -6 1 -2 6 -10
9 -15 6 -7 -4 -8 -2 -4 5 9 13 26 5 25 -12z m-539 3 c0 -5 -4 -10 -10 -10 -5
0 -10 5 -10 10 0 6 5 10 10 10 6 0 10 -4 10 -10z m407 -8 c-10 -10 -17 -24
-17 -30 0 -7 -5 -12 -11 -12 -5 0 -8 4 -5 9 4 5 0 12 -6 14 -9 4 -7 6 3 6 9 1
22 8 29 16 7 8 15 15 18 15 3 0 -2 -8 -11 -18z m-542 -30 c-3 -3 -11 0 -18 7
-9 10 -8 11 6 5 10 -3 15 -9 12 -12z m69 -57 c3 -8 1 -15 -4 -15 -6 0 -10 7
-10 15 0 8 2 15 4 15 2 0 6 -7 10 -15z m493 -5 c-1 -12 -5 -16 -10 -11 -5 5
-6 14 -3 20 11 16 15 13 13 -9z m-67 -7 c0 -3 -7 -3 -15 1 -18 7 -20 -5 -3
-22 9 -9 9 -12 -4 -12 -10 0 -14 8 -13 23 1 12 3 23 4 24 2 4 31 -9 31 -14z
m-57 -68 c-3 -9 -8 -14 -10 -11 -3 3 -2 9 2 15 9 16 15 13 8 -4z m76 8 c14 11
14 10 2 -5 -7 -10 -17 -18 -21 -18 -4 0 -11 8 -15 18 -5 13 -4 14 6 5 10 -10
16 -10 28 0z m-259 -33 c0 -5 -2 -10 -4 -10 -3 0 -8 5 -11 10 -3 6 -1 10 4 10
6 0 11 -4 11 -10z m213 -37 c-5 -12 -7 -12 -14 -1 -13 20 -11 28 5 22 8 -3 12
-12 9 -21z m-268 7 c4 -6 -1 -7 -11 -3 -13 5 -15 3 -9 -7 5 -9 4 -11 -4 -6 -6
4 -9 12 -6 17 8 12 22 12 30 -1z m243 -31 c-3 -8 -7 -3 -11 10 -4 17 -3 21 5
13 5 -5 8 -16 6 -23z m-23 -19 c-3 -5 -1 -10 6 -10 7 0 10 -3 6 -6 -9 -9 -28
6 -22 17 4 5 8 9 11 9 3 0 2 -4 -1 -10z m-35 -75 c0 -8 -7 -15 -15 -15 -13 0
-14 3 -3 15 16 18 18 18 18 0z m-1355 -213 c-3 -3 -11 0 -18 7 -9 10 -8 11 6
5 10 -3 15 -9 12 -12z m179 10 c3 -5 -1 -9 -9 -9 -8 0 -12 4 -9 9 3 4 7 8 9 8
2 0 6 -4 9 -8z m36 -2 c0 -5 -2 -10 -4 -10 -3 0 -8 5 -11 10 -3 6 -1 10 4 10
6 0 11 -4 11 -10z m1080 6 c0 -11 -19 -15 -25 -6 -3 5 1 10 9 10 9 0 16 -2 16
-4z m184 -4 c3 -5 -1 -9 -9 -9 -8 0 -15 4 -15 9 0 4 4 8 9 8 6 0 12 -4 15 -8z
m651 -2 c3 -6 -1 -7 -9 -4 -18 7 -21 14 -7 14 6 0 13 -4 16 -10z m130 0 c3 -5
1 -10 -4 -10 -6 0 -11 5 -11 10 0 6 2 10 4 10 3 0 8 -4 11 -10z m169 -2 c-3
-4 -9 -8 -15 -8 -5 0 -9 4 -9 8 0 5 7 9 15 9 8 0 12 -4 9 -9z m-2137 -4 c-3
-3 -12 -4 -19 -1 -8 3 -5 6 6 6 11 1 17 -2 13 -5z m1930 0 c-3 -3 -12 -4 -19
-1 -8 3 -5 6 6 6 11 1 17 -2 13 -5z m-1120 -126 c-3 -8 -6 -5 -6 6 -1 11 2 17
5 13 3 -3 4 -12 1 -19z m931 -3 c-3 -3 -9 2 -12 12 -6 14 -5 15 5 6 7 -7 10
-15 7 -18z m262 15 c0 -5 -2 -10 -4 -10 -3 0 -8 5 -11 10 -3 6 -1 10 4 10 6 0
11 -4 11 -10z m-2565 -10 c3 -5 1 -10 -4 -10 -6 0 -11 5 -11 10 0 6 2 10 4 10
3 0 8 -4 11 -10z m720 0 c4 -6 11 -7 17 -4 7 4 8 2 4 -5 -6 -9 -12 -9 -24 1
-10 7 -19 14 -21 15 -2 2 1 3 7 3 6 0 14 -5 17 -10z m389 1 c-9 -9 -34 -9 -34
-1 0 5 9 8 20 7 10 -1 17 -3 14 -6z m326 -5 c-7 -7 -13 -7 -20 0 -6 6 -3 10
10 10 13 0 16 -4 10 -10z m147 -1 c0 -8 -4 -12 -9 -9 -5 3 -6 10 -3 15 9 13
12 11 12 -6z m40 -7 c-3 -8 -6 -5 -6 6 -1 11 2 17 5 13 3 -3 4 -12 1 -19z
m246 9 c3 -8 -1 -14 -8 -14 -7 0 -11 6 -8 14 3 7 6 13 8 13 2 0 5 -6 8 -13z
m84 0 c9 -10 -28 -7 -52 3 -16 7 -13 8 13 6 17 -2 35 -6 39 -9z m141 1 c-2 -6
-10 -13 -16 -14 -9 -2 -9 -1 -1 3 8 4 7 8 -2 14 -11 7 -10 9 4 9 10 0 17 -5
15 -12z m293 -5 c13 -17 13 -17 -6 -3 -11 8 -22 16 -24 17 -2 2 0 3 6 3 6 0
17 -8 24 -17z m32 2 c-3 -9 -8 -14 -10 -11 -3 3 -2 9 2 15 9 16 15 13 8 -4z
m-647 -8 c4 -3 -4 -4 -16 -2 -30 6 -40 16 -12 12 12 -2 24 -6 28 -10z m824 3
c0 -5 -4 -10 -10 -10 -5 0 -10 5 -10 10 0 6 5 10 10 10 6 0 10 -4 10 -10z
m-18603 -6 c-3 -3 -12 -4 -19 -1 -8 3 -5 6 6 6 11 1 17 -2 13 -5z m18360 0
c-3 -3 -12 -4 -19 -1 -8 3 -5 6 6 6 11 1 17 -2 13 -5z m683 -515 c0 -5 -4 -9
-10 -9 -16 0 -6 -24 15 -35 10 -6 22 -25 26 -44 4 -18 12 -38 18 -44 6 -6 11
-21 11 -33 0 -20 -4 -21 -46 -17 -27 2 -43 0 -40 -6 9 -14 -32 -1 -45 15 -6 8
-7 14 -2 14 5 0 10 12 11 28 4 67 6 80 12 77 10 -6 27 29 25 52 -1 14 3 19 12
16 7 -3 13 -9 13 -14z m-2890 -53 c0 -2 -8 -10 -17 -17 -16 -13 -17 -12 -4 4
13 16 21 21 21 13z m1723 -11 c-3 -9 -8 -14 -10 -11 -3 3 -2 9 2 15 9 16 15
13 8 -4z m232 5 c3 -5 1 -10 -4 -10 -6 0 -11 5 -11 10 0 6 2 10 4 10 3 0 8 -4
11 -10z m435 0 c0 -5 -8 -10 -17 -10 -15 0 -16 2 -3 10 19 12 20 12 20 0z
m-2667 -17 c-5 -12 -3 -14 7 -8 10 6 11 4 5 -11 -4 -10 -8 -31 -8 -46 1 -16
-4 -28 -9 -28 -5 0 -7 -4 -4 -9 8 -13 -37 -22 -49 -10 -6 6 -5 16 3 29 8 13 8
20 2 20 -6 0 -4 13 5 30 9 17 20 30 26 30 6 0 7 5 4 10 -3 6 1 10 9 10 10 0
13 -6 9 -17z m538 -1 c-7 -2 -18 1 -23 6 -8 8 -4 9 13 5 13 -4 18 -8 10 -11z
m359 7 c0 -9 -31 -21 -37 -15 -3 3 -3 9 1 14 6 10 36 12 36 1z m125 -1 c5 4 4
0 0 -8 -13 -21 -15 -60 -4 -60 5 0 9 -4 9 -10 0 -5 -11 -9 -24 -8 -23 2 -23 3
-8 26 13 20 13 25 1 32 -10 7 -16 4 -20 -8 -4 -9 -5 -20 -3 -24 3 -4 0 -10 -6
-13 -6 -4 -10 -3 -9 2 3 20 -2 25 -15 14 -11 -9 -16 -9 -21 0 -9 14 15 31 34
24 9 -3 11 0 7 10 -3 8 -2 14 2 14 22 -4 32 2 26 14 -6 9 -5 9 8 0 8 -7 19 -9
23 -5z m1305 -3 c-7 -8 -19 -15 -27 -15 -8 0 -12 -4 -9 -8 2 -4 0 -14 -5 -22
-7 -11 -9 -6 -7 16 2 24 6 30 19 27 9 -3 20 0 23 6 4 6 10 11 13 11 3 0 0 -7
-7 -15z m99 -28 c-2 -3 -15 -8 -29 -11 l-25 -7 24 14 c20 12 21 15 7 20 -10 4
-15 3 -11 -3 3 -6 1 -10 -4 -10 -6 0 -11 6 -11 13 0 25 14 28 34 8 11 -11 18
-22 15 -24z m96 33 c3 -5 1 -10 -4 -10 -6 0 -11 5 -11 10 0 6 2 10 4 10 3 0 8
-4 11 -10z m32 -12 c-3 -8 -6 -5 -6 6 -1 11 2 17 5 13 3 -3 4 -12 1 -19z m143
-15 c-11 -17 -11 -17 -6 0 3 10 6 24 7 30 0 9 2 9 5 0 3 -7 0 -20 -6 -30z
m-2405 17 c-3 -5 -11 -10 -16 -10 -6 0 -7 5 -4 10 3 6 11 10 16 10 6 0 7 -4 4
-10z m365 -1 c5 9 10 8 19 -3 10 -12 8 -17 -9 -26 -11 -6 -17 -16 -14 -22 4
-6 3 -8 -4 -4 -6 3 -14 1 -18 -5 -5 -9 1 -10 20 -5 20 5 27 3 24 -5 -7 -20
-36 -18 -55 4 -10 11 -13 18 -7 14 6 -4 19 2 29 13 10 11 14 20 8 20 -5 0 -18
7 -29 16 -18 14 -18 15 5 4 18 -9 25 -9 31 -1z m488 -3 c-10 -7 -16 -15 -13
-18 3 -2 -2 -5 -12 -5 -13 0 -11 4 7 19 12 10 25 18 29 18 3 0 -2 -7 -11 -14z
m1118 2 c4 -6 3 -8 -4 -4 -6 3 -18 -4 -26 -16 -11 -15 -16 -18 -17 -8 0 11 -2
11 -6 2 -2 -6 -9 -10 -14 -6 -5 3 -9 -2 -9 -11 0 -9 4 -13 10 -10 6 3 7 -1 4
-10 -4 -9 -13 -14 -20 -11 -8 3 -14 1 -14 -4 0 -6 -5 -10 -12 -10 -6 0 -4 8 6
19 10 11 15 25 11 30 -3 6 -1 11 5 11 6 0 9 4 6 8 -3 5 0 9 7 10 24 2 47 8 53
15 10 9 12 9 20 -5z m-2717 -32 c-3 -3 -11 5 -18 17 -13 21 -12 21 5 5 10 -10
16 -20 13 -22z m801 24 c0 -5 -5 -10 -11 -10 -5 0 -7 5 -4 10 3 6 8 10 11 10
2 0 4 -4 4 -10z m159 7 c-2 -1 -11 -8 -21 -15 -12 -10 -18 -10 -24 -1 -4 7 -3
9 4 5 6 -3 13 -2 17 4 3 5 11 10 17 10 6 0 9 -1 7 -3z m441 -1 c0 -2 -7 -7
-16 -10 -8 -3 -12 -2 -9 4 6 10 25 14 25 6z m141 -37 c-6 -5 -9 -6 -6 -3 3 4
-1 14 -8 22 -9 13 -9 14 1 8 7 -4 12 -2 13 6 1 7 3 5 6 -6 3 -10 0 -22 -6 -27z
m1270 1 c-7 -3 -9 -14 -5 -23 3 -9 10 -14 15 -11 5 3 6 10 3 16 -4 6 -2 8 4 4
6 -3 13 -2 17 4 3 5 13 10 21 10 8 0 13 -4 10 -9 -4 -5 -1 -11 6 -13 8 -3 6
-7 -5 -11 -9 -3 -17 -2 -17 4 0 6 -7 6 -20 -1 -11 -6 -18 -15 -16 -19 3 -4 -6
-6 -19 -3 -26 4 -35 21 -12 23 9 0 9 2 0 5 -7 3 -9 13 -6 22 6 15 5 16 -12 2
-16 -13 -18 -13 -13 0 3 8 15 14 27 13 11 -2 20 1 20 5 -3 18 4 25 8 8 3 -10
0 -22 -6 -26z m99 25 c-7 -9 -15 -13 -17 -11 -7 7 7 26 19 26 6 0 6 -6 -2 -15z
m191 -2 c13 -16 12 -17 -3 -4 -17 13 -22 21 -14 21 2 0 10 -8 17 -17z m-2518
0 c-15 -6 -18 -43 -3 -43 5 0 7 8 4 18 -5 13 -4 14 4 3 7 -10 6 -20 -1 -33
-10 -15 -13 -16 -15 -4 -2 8 -10 12 -18 9 -8 -3 -14 0 -14 7 0 6 5 8 10 5 6
-4 10 5 10 19 0 18 5 26 18 25 10 0 12 -3 5 -6z m69 -9 c-12 -8 -19 -21 -16
-27 4 -7 3 -9 -1 -4 -19 17 -11 43 14 45 l26 2 -23 -16z m1794 7 c12 10 13 9
8 -5 -8 -21 -34 -21 -33 2 0 11 2 12 6 4 4 -10 8 -10 19 -1z m539 0 c-3 -5 3
-12 12 -14 10 -2 5 -3 -11 -1 -22 3 -26 1 -18 -9 9 -10 6 -13 -12 -13 -29 0
-24 23 8 36 28 11 28 11 21 1z m82 -13 c2 -17 0 -19 -7 -8 -5 8 -6 18 -4 22 8
12 10 10 11 -14z m55 -10 c-8 -8 -9 -4 -5 13 4 13 8 18 11 10 2 -7 -1 -18 -6
-23z m558 11 c0 -6 -4 -7 -10 -4 -5 3 -10 11 -10 16 0 6 5 7 10 4 6 -3 10 -11
10 -16z m3363 6 c-3 -9 -8 -14 -10 -11 -3 3 -2 9 2 15 9 16 15 13 8 -4z m342
-3 c-3 -3 -11 0 -18 7 -9 10 -8 11 6 5 10 -3 15 -9 12 -12z m-23890 -2 c3 -5
-1 -10 -10 -10 -9 0 -13 5 -10 10 3 6 8 10 10 10 2 0 7 -4 10 -10z m17330 -17
c-18 -17 -20 -37 -3 -27 7 5 8 3 3 -5 -13 -22 -28 4 -16 27 6 10 7 22 3 26 -3
4 1 4 11 1 14 -6 15 -9 2 -22z m131 14 c-2 -17 -46 -60 -46 -46 0 6 -9 9 -20
6 -12 -3 -18 -1 -14 5 3 5 14 8 24 5 10 -3 24 5 35 19 20 27 24 29 21 11z
m554 -12 c-6 -7 -8 -20 -4 -29 3 -9 1 -16 -5 -16 -14 0 -15 37 -1 45 6 4 7 11
4 17 -4 7 -2 8 5 4 9 -6 9 -11 1 -21z m1210 21 c0 -2 -7 -7 -16 -10 -8 -3 -12
-2 -9 4 6 10 25 14 25 6z m-14322 -31 c-3 -3 -9 2 -12 12 -6 14 -5 15 5 6 7
-7 10 -15 7 -18z m12366 -17 c6 -4 14 -2 18 5 6 9 8 9 8 0 0 -6 -4 -14 -8 -17
-14 -8 -52 23 -52 42 1 14 2 14 12 -3 6 -11 16 -23 22 -27z m9 27 c-3 -9 -8
-14 -10 -11 -3 3 -2 9 2 15 9 16 15 13 8 -4z m4203 -11 c1 -9 0 -13 -4 -10 -3
4 -7 14 -8 22 -1 9 0 13 4 10 3 -4 7 -14 8 -22z m729 16 c3 -5 1 -10 -4 -10
-6 0 -11 5 -11 10 0 6 2 10 4 10 3 0 8 -4 11 -10z m1642 -5 c0 -8 -7 -15 -15
-15 -12 0 -12 3 -2 15 7 8 13 15 15 15 1 0 2 -7 2 -15z m-5697 -14 c0 -5 -14
-7 -31 -5 -22 3 -28 0 -23 -9 5 -8 2 -7 -9 2 -24 19 -21 24 8 19 14 -3 28 -1
31 4 6 9 24 1 24 -11z m1270 9 c0 -5 -4 -10 -9 -10 -6 0 -13 5 -16 10 -3 6 1
10 9 10 9 0 16 -4 16 -10z m132 -29 c-8 -9 -18 -14 -21 -13 -3 2 -12 7 -19 11
-11 6 -11 11 3 24 13 13 20 14 34 5 17 -10 17 -13 3 -27z m99 26 c-6 -8 -9
-17 -6 -21 3 -3 -1 -1 -7 4 -10 9 -10 13 2 20 21 13 24 12 11 -3z m-2621 -1
c0 -11 -19 -15 -25 -6 -3 5 1 10 9 10 9 0 16 -2 16 -4z m330 0 c0 -3 -4 -8
-10 -11 -5 -3 -10 -1 -10 4 0 6 5 11 10 11 6 0 10 -2 10 -4z m131 -9 c-6 -8
-8 -17 -4 -20 3 -4 1 -7 -5 -7 -15 0 -15 13 0 28 16 16 23 15 9 -1z m46 7 c-3
-3 -12 -4 -19 -1 -8 3 -5 6 6 6 11 1 17 -2 13 -5z m123 -29 c0 -5 -5 -3 -10 5
-5 8 -10 20 -10 25 0 6 5 3 10 -5 5 -8 10 -19 10 -25z m1565 26 c3 -6 14 -8
25 -6 12 2 18 0 15 -5 -6 -10 -24 -8 -43 4 -19 11 -30 -3 -12 -15 12 -9 12
-10 -3 -5 -10 3 -24 6 -30 6 -6 0 -2 7 9 15 23 17 31 18 39 6z m2585 -1 c0 -5
-5 -10 -11 -10 -5 0 -7 5 -4 10 3 6 8 10 11 10 2 0 4 -4 4 -10z m-4630 -6 c0
-2 -9 -8 -19 -14 -14 -7 -22 -7 -27 2 -4 7 -3 8 4 4 7 -4 12 -3 12 2 0 5 7 9
15 9 8 0 15 -2 15 -3z m877 -7 c0 -8 -6 -14 -13 -14 -7 0 -11 4 -8 8 2 4 -2
10 -8 12 -7 3 -4 6 8 6 11 1 21 -5 21 -12z m2188 -5 c-3 -3 -11 0 -18 7 -9 10
-8 11 6 5 10 -3 15 -9 12 -12z m-2675 -8 c0 -2 -7 -4 -15 -4 -8 0 -15 4 -15
10 0 5 7 7 15 4 8 -4 15 -8 15 -10z m2560 -38 c0 -2 -8 -10 -17 -17 -16 -13
-17 -12 -4 4 13 16 21 21 21 13z m170 -271 c0 -8 -4 -15 -10 -15 -5 0 -7 7 -4
15 4 8 8 15 10 15 2 0 4 -7 4 -15z m-20410 -66 c0 -3 -7 -6 -15 -6 -8 0 -12 4
-9 8 2 4 0 10 -6 14 -5 3 -10 1 -10 -6 0 -7 -3 -10 -6 -6 -3 3 -3 10 0 16 7
11 46 -7 46 -20z m19587 -187 c-10 -2 -14 -8 -11 -15 4 -7 3 -8 -1 -4 -19 17
-13 35 9 29 18 -5 18 -7 3 -10z m-67 -37 c0 -20 -5 -25 -25 -25 -27 0 -30 17
-5 37 23 19 30 16 30 -12z m-1711 -1 c-8 -10 -5 -16 10 -26 12 -7 21 -23 21
-36 0 -13 -4 -20 -10 -17 -6 4 -8 10 -5 14 6 10 -34 57 -46 54 -14 -4 -11 15
4 20 25 8 37 4 26 -9z m1645 1 c-8 -19 14 -47 30 -38 6 4 5 -1 -3 -10 -9 -12
-10 -17 -2 -17 7 0 9 -4 6 -10 -3 -5 -2 -10 4 -10 5 0 13 5 16 10 4 6 11 8 16
5 5 -4 6 2 2 12 -3 10 -3 15 2 11 4 -4 15 -2 23 5 13 10 14 9 7 -3 -8 -13 -7
-13 11 0 10 8 21 18 24 21 3 3 15 11 27 17 17 10 25 9 37 -4 20 -20 20 -30 0
-38 -8 -3 -13 -10 -10 -15 3 -5 -1 -14 -9 -21 -9 -7 -13 -21 -10 -30 3 -11 -1
-20 -10 -24 -8 -3 -15 -10 -15 -16 0 -7 5 -8 13 -3 20 13 57 10 57 -4 0 -11
-5 -11 -20 -3 -17 9 -20 8 -20 -10 0 -12 -4 -18 -10 -15 -5 3 -10 -3 -10 -15
0 -12 -5 -18 -10 -15 -6 4 -8 11 -5 16 8 12 -28 -2 -37 -15 -15 -21 -7 -28 27
-23 19 3 35 1 35 -4 0 -5 -6 -9 -12 -9 -18 -1 -50 -48 -42 -62 4 -7 3 -8 -4
-4 -16 10 -15 22 4 40 14 15 12 16 -24 16 -42 0 -62 -15 -65 -49 -1 -15 -4
-17 -15 -9 -9 8 -16 8 -25 -2 -9 -10 -9 -11 0 -6 9 5 11 2 6 -9 -4 -13 -8 -14
-14 -4 -6 10 -12 9 -28 -5 -11 -10 -19 -22 -16 -26 2 -4 -2 -7 -9 -7 -9 0 -12
7 -8 16 4 13 1 12 -16 -3 -12 -11 -22 -14 -22 -8 0 6 -7 9 -15 6 -17 -7 -21
-25 -4 -21 6 1 14 -4 17 -12 3 -8 0 -11 -7 -7 -24 15 -51 15 -51 0 0 -8 -5
-12 -11 -8 -8 4 -8 9 0 17 17 17 13 23 -14 25 -14 1 -36 3 -49 4 -14 1 -22 6
-20 10 5 7 -18 12 -38 9 -4 0 -3 12 3 27 11 29 64 83 73 75 3 -3 4 3 1 15 -2
11 5 29 15 40 10 11 16 23 12 27 -4 5 3 6 15 3 13 -4 27 0 34 8 10 12 6 14
-22 12 -19 -2 -37 -7 -40 -11 -3 -5 -9 0 -11 11 -4 16 -2 19 10 15 8 -4 13 -2
10 3 -4 5 1 18 9 29 15 20 15 20 10 -2 -7 -29 9 -39 29 -19 14 15 14 16 0 16
-9 0 -16 5 -16 11 0 5 5 7 10 4 6 -3 15 -3 21 1 8 4 7 9 -2 15 -11 7 -9 9 6 9
15 0 17 3 7 9 -11 7 -10 9 3 15 9 3 13 11 9 17 -4 7 7 3 25 -7 27 -16 33 -17
41 -5 10 17 40 24 40 10 0 -5 5 -9 11 -9 5 0 7 5 4 10 -7 11 0 40 9 40 3 0 3
-7 0 -15z m-1519 -35 c3 -5 1 -10 -4 -10 -6 0 -11 5 -11 10 0 6 2 10 4 10 3 0
8 -4 11 -10z m-212 -27 c18 -10 34 -21 35 -25 2 -5 10 -8 17 -8 8 0 35 -18 61
-41 33 -28 49 -37 54 -28 6 8 11 6 19 -9 10 -18 38 -34 66 -37 6 0 9 -7 7 -14
-1 -7 1 -10 6 -7 5 3 19 -5 33 -18 13 -12 31 -20 38 -18 8 3 11 0 7 -7 -4 -6
-1 -11 8 -11 9 0 16 -6 17 -12 0 -7 4 -4 9 7 7 17 9 17 9 3 1 -10 6 -18 11
-18 6 0 10 -6 10 -14 0 -8 8 -13 18 -12 24 4 57 -34 40 -46 -19 -13 -92 -52
-100 -54 -5 -1 -9 -2 -10 -4 -11 -9 -105 -7 -117 3 -12 9 -13 9 -7 0 4 -8 2
-13 -8 -13 -8 0 -18 5 -22 12 -5 7 -3 8 7 3 12 -8 12 -6 0 8 -13 17 -57 25
-47 9 3 -5 -1 -9 -9 -9 -11 0 -12 5 -3 20 5 11 6 17 1 14 -5 -3 -22 5 -36 19
-15 14 -36 26 -47 27 -10 1 -16 5 -14 9 3 5 10 6 15 3 5 -4 9 -2 9 2 0 5 -9
14 -20 21 -11 7 -20 17 -20 22 0 6 -9 19 -20 30 -11 11 -20 27 -20 36 0 10 -5
14 -15 10 -20 -8 -42 -14 -32 -9 4 3 5 9 2 14 -4 5 2 6 12 2 15 -5 16 -3 6 7
-9 10 -10 17 -2 27 6 7 8 20 3 30 -4 10 -8 20 -9 23 0 3 -4 15 -9 27 -7 21 -2
43 11 43 2 0 19 -8 36 -17z m87 7 c0 -5 -7 -7 -15 -4 -8 4 -15 8 -15 10 0 2 7
4 15 4 8 0 15 -4 15 -10z m116 -25 c10 -8 15 -15 11 -15 -4 0 1 -10 13 -22 24
-26 21 -42 -8 -46 -14 -2 -22 2 -22 12 0 8 -8 17 -17 20 -13 3 -12 4 3 3 11
-1 20 3 20 8 -1 6 -13 9 -28 7 -30 -2 -36 10 -15 33 15 18 19 18 43 0z m1731
-40 c0 -8 -4 -12 -9 -9 -5 3 -6 10 -3 15 9 13 12 11 12 -6z m-1629 -26 c-6 -4
-17 -5 -23 -2 -5 4 -7 2 -2 -2 4 -5 22 -10 40 -11 59 -3 59 -3 38 -25 -21 -22
-44 -18 -34 6 5 16 -5 19 -31 9 -9 -3 -13 -11 -10 -16 4 -6 -1 -6 -13 1 -11 6
-23 8 -27 6 -3 -3 -3 -2 0 3 3 4 11 7 17 7 7 0 12 7 12 15 1 8 7 14 14 12 9
-2 11 3 7 14 -5 14 -4 15 9 4 12 -10 13 -15 3 -21z m-151 4 c0 -8 -6 -9 -19
-2 -10 5 -18 11 -18 12 0 2 8 3 18 3 10 0 19 -6 19 -13z m248 -43 c3 -5 -1
-10 -10 -10 -9 0 -13 5 -10 10 3 6 8 10 10 10 2 0 7 -4 10 -10z m-98 -22 c-3
-8 -6 -5 -6 6 -1 11 2 17 5 13 3 -3 4 -12 1 -19z m73 -30 c9 -20 9 -21 -2 -7
-14 17 -42 14 -32 -3 5 -7 2 -8 -6 -3 -10 6 -9 11 5 22 24 17 22 17 35 -9z
m54 -14 c5 -14 4 -15 -9 -4 -17 14 -19 20 -6 20 5 0 12 -7 15 -16z m1349 -41
c-6 -15 -4 -16 9 -6 15 13 28 8 28 -9 0 -5 -4 -7 -9 -4 -5 3 -14 -8 -21 -24
-12 -28 -40 -42 -40 -20 0 6 6 9 13 8 7 -2 12 9 13 27 1 37 3 45 9 45 2 0 1
-8 -2 -17z m-1739 -59 c6 -15 4 -15 -11 -3 -10 7 -20 15 -22 16 -2 2 3 3 11 3
9 0 19 -7 22 -16z m1796 12 c0 -2 -8 -10 -17 -17 -16 -13 -17 -12 -4 4 13 16
21 21 21 13z m-1725 -47 c-3 -4 -12 -6 -20 -3 -8 4 -13 10 -10 15 3 4 12 6 20
3 8 -4 13 -10 10 -15z m1615 -5 c0 -2 -8 0 -19 5 -10 6 -22 7 -26 3 -5 -4 -5
-1 -1 6 5 9 12 9 27 2 10 -6 19 -13 19 -16z m764 8 c3 -5 -1 -9 -9 -9 -8 0
-12 4 -9 9 3 4 7 8 9 8 2 0 6 -4 9 -8z m-814 -27 c-7 -8 -18 -15 -24 -14 -6 0
-5 3 3 6 11 5 11 7 0 14 -10 6 -7 9 10 9 20 0 21 -2 11 -15z m-1542 -40 c-3
-3 -9 2 -12 12 -6 14 -5 15 5 6 7 -7 10 -15 7 -18z m182 -5 c0 -5 -2 -10 -4
-10 -3 0 -8 5 -11 10 -3 6 -1 10 4 10 6 0 11 -4 11 -10z m7 -42 c-3 -8 -6 -5
-6 6 -1 11 2 17 5 13 3 -3 4 -12 1 -19z m2146 -47 c3 -14 1 -18 -9 -14 -15 6
-18 16 -7 26 9 10 10 9 16 -12z m-468 -503 c-10 -48 -13 -50 -42 -31 -26 17
-26 17 -14 -5 6 -12 19 -22 27 -22 8 0 12 -5 9 -11 -5 -7 -13 -5 -24 5 -10 9
-23 16 -29 16 -22 0 -61 -23 -55 -33 3 -6 1 -7 -5 -3 -20 12 -14 21 23 35 31
11 41 25 36 54 -2 13 8 7 34 -20 28 -31 34 -20 8 17 -14 21 -14 23 -1 12 13
-10 17 -10 22 3 10 27 18 16 11 -17z m-85 -13 c0 -8 -4 -15 -10 -15 -5 0 -7 7
-4 15 4 8 8 15 10 15 2 0 4 -7 4 -15z m-39 -28 c-8 -8 -11 -7 -11 4 0 9 3 19
7 23 4 4 9 2 11 -4 3 -7 -1 -17 -7 -23z m-2009 -17 c-2 -3 -7 1 -9 8 -3 6 -14
12 -26 13 -20 1 -20 2 3 8 18 5 27 3 31 -8 4 -9 4 -18 1 -21z m1988 30 c0 -5
-5 -10 -11 -10 -5 0 -7 5 -4 10 3 6 8 10 11 10 2 0 4 -4 4 -10z m-2050 -15 c0
-8 -2 -15 -4 -15 -2 0 -6 7 -10 15 -3 8 -1 15 4 15 6 0 10 -7 10 -15z m2029
-21 c-6 -8 -18 -14 -26 -14 -8 0 -11 -4 -8 -10 3 -5 2 -10 -4 -10 -5 0 -18 -3
-28 -6 -13 -5 -12 -2 5 10 12 10 19 22 16 28 -4 6 -2 8 3 5 6 -4 13 0 17 8 3
8 12 12 21 9 12 -5 13 -9 4 -20z m-1997 -8 c-2 -13 2 -15 24 -10 21 6 25 4 19
-7 -8 -12 -6 -12 8 0 10 8 17 9 17 3 0 -6 12 -9 28 -8 15 2 30 -2 34 -8 5 -7
8 -7 8 3 0 11 3 11 16 0 15 -12 16 -11 9 10 -5 16 -4 21 4 17 6 -4 11 -13 11
-21 0 -8 5 -17 12 -21 6 -4 8 -3 5 3 -4 6 0 14 9 17 8 3 13 2 10 -3 -3 -5 2
-15 11 -22 14 -12 16 -12 8 0 -6 11 -4 13 9 8 10 -4 22 -7 27 -7 6 0 7 -4 4
-10 -4 -6 1 -7 11 -3 14 5 13 8 -7 19 -13 7 -19 13 -14 14 15 0 55 -29 55 -40
0 -5 -8 -7 -17 -3 -23 8 -14 -1 16 -17 15 -7 21 -8 17 -1 -5 7 -1 9 8 5 9 -3
13 -10 10 -15 -3 -5 0 -9 5 -9 6 0 11 6 11 13 0 6 5 4 11 -6 6 -10 15 -14 22
-10 8 5 8 2 -1 -9 -10 -13 -9 -17 10 -23 28 -9 39 -11 56 -13 23 -3 12 -32
-15 -43 -33 -11 -183 -164 -183 -185 0 -8 -7 -17 -15 -20 -8 -4 -15 -15 -15
-25 0 -10 -4 -19 -9 -19 -10 0 -19 -30 -14 -46 6 -18 46 -3 73 28 13 15 30 28
37 28 7 0 13 7 13 15 0 8 11 17 25 21 14 3 25 13 25 21 0 8 5 11 10 8 6 -3 10
1 10 9 0 9 6 16 14 16 8 0 17 7 20 16 4 9 13 14 21 10 8 -3 14 0 12 6 -1 6 4
13 12 16 8 3 11 0 7 -7 -4 -6 -3 -11 1 -11 5 0 14 9 21 21 8 12 19 18 28 15 8
-3 14 1 14 10 0 8 5 12 10 9 6 -4 17 -1 25 5 8 6 18 9 22 7 5 -3 24 3 43 12
31 15 78 19 152 12 9 0 24 -8 32 -17 9 -8 16 -12 16 -9 0 4 19 -16 43 -44 23
-28 50 -51 60 -51 9 0 17 -4 17 -10 0 -5 10 -9 23 -9 12 1 33 -2 47 -6 36 -9
202 -15 215 -7 5 4 16 7 23 8 8 2 26 17 40 35 74 91 67 86 100 67 17 -10 37
-18 46 -18 20 0 186 -79 204 -97 7 -7 17 -13 21 -13 5 0 24 -13 42 -30 36 -32
69 -39 65 -15 -3 20 -51 79 -120 148 -32 32 -55 61 -52 65 4 3 27 7 52 7 24 0
44 3 44 7 0 3 16 15 36 27 19 12 32 15 29 9 -4 -7 0 -5 8 4 8 10 17 15 20 11
4 -3 7 -1 7 6 0 7 4 10 9 6 6 -3 13 0 18 7 4 7 22 20 38 28 36 17 95 66 89 73
-4 4 23 3 48 -2 4 0 -3 -21 -17 -46 -13 -25 -18 -43 -12 -39 7 3 3 -2 -7 -10
-11 -9 -17 -16 -13 -16 4 0 0 -16 -8 -36 -19 -46 -19 -47 3 -40 14 5 13 3 -3
-9 -13 -11 -19 -25 -17 -45 2 -17 -1 -30 -7 -30 -6 0 -8 -6 -5 -14 3 -8 1 -17
-5 -21 -8 -4 -8 -12 0 -27 8 -16 8 -19 -1 -13 -9 6 -11 0 -8 -24 2 -17 0 -31
-5 -31 -5 0 -4 -7 3 -15 18 -22 39 4 46 59 4 25 11 46 16 46 5 0 6 5 3 10 -3
6 -2 10 3 10 9 0 28 65 24 83 -4 16 34 -16 44 -38 8 -17 8 -27 1 -34 -6 -6 -7
-11 -3 -11 5 0 3 -7 -4 -15 -9 -11 -9 -15 -1 -15 9 0 9 -5 1 -20 -8 -15 -8
-20 2 -21 10 0 10 -2 1 -6 -8 -3 -10 -11 -4 -21 12 -25 6 -68 -12 -87 -10 -9
-17 -21 -17 -26 0 -6 -4 -8 -9 -5 -5 3 -14 -8 -21 -24 -7 -16 -27 -41 -46 -55
-19 -14 -34 -30 -34 -34 0 -14 -62 -76 -72 -73 -5 1 -7 -2 -3 -8 3 -5 1 -10
-4 -10 -6 0 -10 -3 -9 -8 2 -4 -3 -14 -10 -22 -6 -8 -32 -41 -56 -72 -23 -32
-47 -54 -52 -50 -4 4 -2 -1 5 -11 12 -15 12 -17 -2 -11 -18 6 -41 -26 -46 -66
0 -5 -8 -7 -16 -4 -11 5 -13 2 -9 -10 5 -12 2 -15 -12 -9 -13 5 -16 3 -11 -10
4 -11 2 -14 -9 -10 -17 6 -19 -8 -2 -25 9 -9 9 -12 0 -12 -7 0 -12 4 -12 10 0
5 -6 7 -14 4 -15 -6 -39 27 -77 108 -30 63 -38 67 -135 73 -38 2 -98 7 -134
11 -36 4 -93 8 -127 8 -33 1 -68 7 -75 14 -8 6 -18 9 -22 5 -3 -4 1 8 10 25 8
18 20 32 25 32 5 0 2 -11 -7 -25 -20 -31 -2 -35 35 -8 14 9 22 12 18 7 -3 -6
11 -11 33 -12 21 -2 41 1 44 6 3 5 20 8 36 7 25 -2 30 1 26 14 -4 9 2 6 14 -8
19 -21 26 -16 20 14 -1 6 4 4 11 -2 7 -7 32 -13 55 -13 24 0 46 -4 49 -10 3
-5 16 -10 29 -10 12 0 26 -3 30 -7 14 -15 35 -11 30 5 -5 14 -4 14 6 -1 6 -9
15 -15 20 -12 5 3 11 1 15 -5 11 -17 28 -11 20 8 -5 14 -4 15 6 5 16 -16 69
-17 69 -2 0 5 5 7 11 3 8 -5 8 -1 0 13 -6 11 -25 28 -43 37 -18 9 -48 26 -65
36 -18 11 -33 17 -33 14 0 -4 -7 -1 -15 6 -8 6 -24 13 -37 15 -13 2 -63 12
-111 23 -82 19 -126 20 -150 5 -6 -3 -7 -1 -3 5 5 8 -1 9 -21 2 -15 -5 -44
-12 -63 -14 -85 -12 -104 -17 -109 -24 -7 -11 -61 -26 -78 -23 -7 1 -13 -3
-13 -9 0 -6 -5 -8 -11 -4 -6 3 -14 2 -18 -4 -4 -6 -29 -17 -56 -24 -80 -21
-98 -55 -32 -60 15 -1 27 -6 27 -11 0 -10 -20 -50 -29 -57 -3 -3 -25 -30 -49
-61 -26 -35 -57 -63 -82 -74 -38 -17 -41 -17 -59 -1 -24 21 -35 57 -15 49 7
-2 10 -11 7 -19 -4 -10 0 -12 11 -8 10 4 16 1 16 -9 0 -10 7 -13 20 -10 11 3
20 12 20 20 0 17 -24 43 -39 43 -6 0 -11 5 -11 10 0 6 -6 10 -13 10 -7 0 -23
9 -34 19 -12 11 -24 17 -27 14 -3 -4 -6 -2 -6 4 0 12 -81 69 -92 65 -5 -1 -8
4 -8 12 0 16 -27 29 -41 21 -5 -4 -6 1 -3 9 5 13 -9 23 -19 14 -6 -6 -35 27
-30 35 2 4 -2 7 -9 7 -14 0 -128 118 -128 133 0 6 -3 7 -6 4 -4 -4 -15 3 -25
15 -16 17 -21 19 -34 8 -13 -11 -14 -10 -9 5 5 13 4 16 -5 11 -6 -4 -11 -4
-10 1 1 4 -3 19 -9 33 -6 14 -11 21 -11 15 -1 -5 -19 10 -41 34 -30 32 -40 51
-39 75 2 45 -10 235 -17 276 -8 53 -12 124 -7 133 3 4 11 3 18 -3 9 -8 11 -4
7 16 -4 20 -1 25 9 22 8 -3 13 -13 11 -22z m2128 -46 c0 -14 -28 -1 -34 16 -4
12 -2 12 14 4 11 -6 20 -15 20 -20z m-215 0 c3 -6 -4 -10 -17 -10 -18 0 -20 2
-8 10 19 12 18 12 25 0z m168 -11 c-4 -15 -8 -17 -14 -8 -8 14 -3 29 11 29 4
0 6 -9 3 -21z m-2583 -9 c0 -5 -5 -10 -11 -10 -5 0 -7 5 -4 10 3 6 8 10 11 10
2 0 4 -4 4 -10z m2390 -9 c0 -4 -10 -7 -22 -7 -13 1 -22 -4 -21 -10 1 -6 -5
-11 -13 -11 -7 0 -14 4 -14 9 0 4 5 8 11 8 5 0 7 5 3 12 -4 6 -3 8 4 4 6 -3
13 -2 17 3 6 11 35 4 35 -8z m230 -1 c0 -5 -2 -10 -4 -10 -3 0 -8 5 -11 10 -3
6 -1 10 4 10 6 0 11 -4 11 -10z m15 -20 c-3 -5 -14 -10 -23 -9 -14 0 -13 2 3
9 27 11 27 11 20 0z m-54 -17 c13 -16 12 -17 -3 -4 -17 13 -22 21 -14 21 2 0
10 -8 17 -17z m-275 -20 c-7 -7 -26 7 -26 19 0 6 6 6 15 -2 9 -7 13 -15 11
-17z m-19396 13 c0 -3 -4 -8 -10 -11 -5 -3 -10 -1 -10 4 0 6 5 11 10 11 6 0
10 -2 10 -4z m19360 -36 c-20 -12 -32 -2 -17 15 8 8 16 10 22 4 6 -7 5 -13 -5
-19z m285 11 c3 -5 2 -12 -3 -15 -5 -3 -9 1 -9 9 0 17 3 19 12 6z m65 -16 c0
-8 -5 -15 -11 -15 -5 0 -7 5 -3 12 5 8 2 9 -10 5 -10 -4 -15 -3 -11 3 10 15
35 12 35 -5z m-13910 -9 c0 -3 -4 -8 -10 -11 -5 -3 -10 -1 -10 4 0 6 5 11 10
11 6 0 10 -2 10 -4z m13504 -20 c-10 -8 -21 -12 -23 -10 -3 2 4 11 15 18 10 8
21 12 23 10 3 -2 -4 -11 -15 -18z m-84 -26 c0 -5 -4 -10 -10 -10 -5 0 -10 5
-10 10 0 6 5 10 10 10 6 0 10 -4 10 -10z m470 -5 c0 -8 -4 -15 -10 -15 -5 0
-7 7 -4 15 4 8 8 15 10 15 2 0 4 -7 4 -15z m-33 -27 c-3 -8 -6 -5 -6 6 -1 11
2 17 5 13 3 -3 4 -12 1 -19z m5738 -42 c0 -15 -4 -21 -9 -16 -5 5 -6 16 -3 24
9 22 12 20 12 -8z m-5700 -25 c3 -5 2 -12 -3 -15 -5 -3 -9 1 -9 9 0 17 3 19
12 6z m-13876 -104 c0 -27 -2 -29 -9 -12 -12 28 -12 57 0 50 6 -3 10 -21 9
-38z m13866 -86 c3 -5 2 -12 -3 -15 -5 -3 -9 1 -9 9 0 17 3 19 12 6z m5 -41
c0 -5 -4 -10 -9 -10 -6 0 -13 5 -16 10 -3 6 1 10 9 10 9 0 16 -4 16 -10z m-50
-67 c0 -5 -11 -21 -25 -38 -19 -24 -24 -26 -25 -12 0 10 5 15 10 12 6 -3 10 1
10 9 0 9 5 16 11 16 5 0 7 5 4 10 -3 6 -1 10 4 10 6 0 11 -3 11 -7z m-1890
-60 c0 -8 -10 -4 -25 9 -31 27 -31 29 0 15 14 -7 25 -18 25 -24z m30 -23 c0
-5 -5 -10 -11 -10 -5 0 -7 5 -4 10 3 6 8 10 11 10 2 0 4 -4 4 -10z m1796 -12
c4 -6 3 -9 -2 -6 -11 7 -35 -17 -27 -26 4 -3 1 -6 -5 -6 -15 0 -15 5 0 30 15
23 24 25 34 8z m-14198 -88 c3 -3 12 -6 50 -15 17 -4 32 -12 32 -17 0 -5 4 -7
9 -3 5 3 34 -20 63 -51 29 -32 62 -65 72 -75 23 -22 13 -38 -13 -22 -16 10
-20 8 -26 -10 -5 -12 -8 -28 -9 -35 -1 -13 -25 -29 -85 -58 -37 -17 -156 -18
-178 -1 -7 5 -13 7 -13 3 0 -3 -18 5 -40 19 -22 14 -43 25 -47 25 -9 1 -76 83
-81 100 -2 6 3 7 12 4 20 -8 20 -1 1 36 -9 17 -15 33 -15 37 1 5 -9 11 -22 14
-22 5 -21 6 7 12 17 4 66 14 109 22 43 8 81 16 83 18 3 4 86 1 91 -3z m12522
-16 c0 -2 -9 0 -20 6 -11 6 -20 13 -20 16 0 2 9 0 20 -6 11 -6 20 -13 20 -16z
m690 16 c0 -5 -2 -10 -4 -10 -3 0 -8 5 -11 10 -3 6 -1 10 4 10 6 0 11 -4 11
-10z m125 0 c3 -5 1 -10 -4 -10 -6 0 -11 5 -11 10 0 6 2 10 4 10 3 0 8 -4 11
-10z m769 -5 c-4 -8 -10 -15 -15 -15 -4 0 -6 7 -3 15 4 8 10 15 15 15 4 0 6
-7 3 -15z m-940 -1 c20 -8 21 -23 1 -20 -19 3 -44 26 -28 26 6 0 18 -3 27 -6z
m-12320 -29 c-5 -12 3 -15 35 -15 28 0 44 -5 47 -15 8 -21 -18 -59 -60 -84
-19 -12 -33 -27 -30 -34 2 -7 -6 -18 -18 -26 -19 -12 -23 -11 -33 3 -15 20
-29 21 -21 1 4 -12 -3 -15 -34 -15 -25 0 -39 4 -37 11 1 7 -13 16 -30 21 -18
5 -33 13 -33 19 0 5 19 31 42 57 l42 47 -40 -37 c-53 -51 -68 -49 -19 2 30 31
47 40 72 40 22 0 33 5 33 14 0 14 21 22 67 25 16 1 21 -3 17 -14z m12286 -5
c0 -5 -7 -7 -15 -4 -8 4 -15 8 -15 10 0 2 7 4 15 4 8 0 15 -4 15 -10z m80 -11
c0 -6 -4 -7 -10 -4 -5 3 -10 11 -10 16 0 6 5 7 10 4 6 -3 10 -11 10 -16z m870
6 c-7 -8 -19 -15 -26 -15 -8 0 -13 -5 -11 -12 1 -6 -7 -13 -18 -15 l-20 -3 20
9 c11 5 16 10 11 10 -5 1 -3 8 4 16 7 8 16 13 20 10 5 -3 11 -1 15 5 3 5 9 10
12 10 3 0 0 -7 -7 -15z m-1496 -14 c-9 -9 -34 -9 -40 0 -3 5 6 8 20 7 14 -1
23 -4 20 -7z m70 -77 c4 -10 1 -14 -6 -12 -15 5 -23 28 -10 28 5 0 13 -7 16
-16z m49 -29 c-3 -9 -8 -14 -10 -11 -3 3 -2 9 2 15 9 16 15 13 8 -4z m33 -22
c-2 -9 -9 -19 -17 -21 -11 -3 -11 -1 1 7 8 6 11 11 7 11 -5 0 -5 5 -2 10 9 15
14 12 11 -7z m7305 -160 c13 -16 12 -17 -3 -4 -10 7 -18 15 -18 17 0 8 8 3 21
-13z m-19147 -160 c3 -21 6 -55 6 -75 0 -41 -27 -153 -43 -179 -8 -13 -5 -24
13 -48 17 -25 21 -41 17 -72 -7 -54 -41 -116 -90 -166 -50 -52 -92 -57 -148
-19 -19 13 -46 26 -60 28 -20 2 -12 9 44 35 38 18 97 51 133 74 84 54 85 74 6
111 -72 33 -253 72 -298 63 -38 -7 -38 -7 -24 29 8 22 13 24 34 16 16 -6 47
-5 85 1 58 11 64 15 182 125 66 63 125 114 129 114 4 0 10 -17 14 -37z m-954
12 c148 -25 221 -50 276 -92 32 -24 34 -28 18 -34 -11 -3 -27 -1 -36 5 -24 14
-31 3 -17 -28 8 -17 22 -27 43 -30 17 -2 64 -9 105 -15 69 -9 90 -20 91 -47 0
-7 -23 -14 -52 -17 -139 -14 -295 -55 -391 -104 -41 -20 -48 -21 -53 -8 -10
25 -24 17 -24 -15 0 -18 9 -39 23 -52 l22 -23 3 23 c7 44 151 96 317 114 108
11 119 10 151 -7 32 -17 36 -17 72 -1 35 16 43 16 111 2 117 -25 131 -50 49
-93 -49 -25 -65 -27 -193 -31 -86 -3 -172 0 -223 8 -45 7 -85 10 -89 7 -8 -9
139 -77 166 -77 31 0 26 -19 -6 -26 -57 -12 -70 -18 -133 -60 -36 -24 -75 -44
-88 -44 -19 0 -158 65 -217 103 -151 95 -179 124 -194 199 -9 48 -16 206 -12
316 l1 42 98 0 c53 0 135 -7 182 -15z m-259 -506 c19 -16 20 -18 4 -10 -34 17
-51 31 -39 31 7 0 22 -9 35 -21z m-5037 -7 c3 -5 -1 -9 -9 -9 -8 0 -12 4 -9 9
3 4 7 8 9 8 2 0 6 -4 9 -8z m5106 -38 c0 -2 -9 0 -20 6 -11 6 -20 13 -20 16 0
2 9 0 20 -6 11 -6 20 -13 20 -16z m-5140 -474 c6 -11 8 -20 6 -20 -3 0 -10 9
-16 20 -6 11 -8 20 -6 20 3 0 10 -9 16 -20z m18523 -165 c19 -4 37 -2 41 3 3
6 23 6 48 2 24 -5 48 -5 53 0 6 4 21 6 35 4 14 -2 45 -6 70 -9 75 -7 96 -12
110 -20 9 -6 11 -4 5 5 -6 10 -4 11 6 4 8 -4 24 -7 37 -5 12 1 22 -2 22 -7 0
-6 11 -9 25 -7 14 1 28 -2 31 -7 3 -4 9 -6 14 -3 5 3 26 -1 46 -10 20 -8 39
-13 42 -10 2 2 14 -1 26 -7 11 -7 28 -13 36 -14 8 -2 23 -7 35 -12 30 -15 89
-37 97 -37 4 0 13 -6 20 -12 6 -7 18 -13 25 -13 7 0 13 -4 13 -10 0 -5 6 -7
14 -4 8 3 24 -4 35 -15 12 -12 21 -19 21 -16 0 5 113 -55 120 -65 3 -3 32 -25
64 -48 78 -55 132 -99 173 -140 18 -18 33 -31 33 -27 0 3 31 -31 69 -77 39
-46 79 -93 89 -105 11 -12 18 -24 15 -27 -3 -3 2 -8 11 -12 9 -3 13 -10 10
-15 -3 -5 2 -12 10 -15 9 -3 16 -12 16 -20 0 -7 8 -18 18 -23 9 -6 13 -11 8
-11 -4 0 4 -16 18 -35 15 -19 24 -35 20 -35 -4 0 0 -8 8 -17 19 -21 66 -122
99 -210 13 -35 27 -63 32 -63 4 0 6 -4 2 -10 -3 -5 -1 -17 4 -27 8 -15 19 -61
22 -98 0 -5 5 -16 11 -22 6 -7 8 -20 4 -28 -4 -10 -2 -14 6 -9 7 5 9 -1 6 -20
-3 -14 -1 -29 4 -32 5 -3 9 -20 8 -38 -1 -17 -1 -33 0 -36 5 -15 11 -50 15
-93 2 -26 7 -52 10 -57 4 -6 2 -10 -4 -10 -7 0 -7 -8 -1 -24 5 -13 7 -26 4
-29 -3 -2 -6 -45 -7 -95 -1 -50 -5 -94 -9 -98 -5 -4 -3 -13 3 -21 7 -8 8 -13
1 -13 -5 0 -8 -9 -5 -20 3 -11 0 -20 -6 -20 -8 0 -9 -5 -2 -18 7 -13 7 -22 0
-29 -6 -6 -12 -28 -14 -49 -1 -22 -4 -39 -5 -39 -1 0 -3 -9 -4 -20 -5 -40 -19
-90 -27 -100 -4 -6 -11 -26 -14 -45 -3 -19 -12 -41 -20 -50 -7 -8 -14 -18 -14
-23 -1 -4 -7 -23 -15 -42 -9 -20 -16 -39 -16 -43 -1 -4 -8 -18 -15 -32 -6 -14
-24 -51 -39 -82 -15 -32 -32 -58 -37 -58 -5 0 -9 -9 -9 -20 0 -11 -4 -20 -10
-20 -5 0 -19 -18 -29 -39 -11 -21 -26 -45 -33 -52 -7 -8 -26 -32 -42 -54 -16
-22 -50 -61 -75 -87 -25 -26 -51 -53 -57 -60 -35 -40 -128 -118 -142 -118 -8
0 -12 -3 -9 -6 8 -8 -55 -54 -111 -83 -22 -11 -42 -24 -44 -28 -5 -14 -66 -53
-81 -53 -8 0 -26 -9 -41 -21 -14 -11 -26 -17 -26 -13 0 5 -5 3 -12 -4 -7 -7
-20 -12 -30 -12 -10 0 -18 -4 -18 -9 0 -5 -10 -12 -22 -16 -34 -11 -38 -12
-40 -15 -2 -1 -16 -4 -32 -6 -16 -2 -32 -7 -35 -13 -4 -5 -18 -12 -31 -15 -14
-3 -40 -9 -59 -15 -19 -6 -38 -8 -42 -5 -5 3 -9 1 -9 -3 0 -9 -80 -28 -150
-37 -19 -2 -53 -7 -75 -12 -22 -4 -77 -7 -122 -8 -50 0 -79 -4 -76 -10 4 -5 1
-6 -8 -1 -7 5 -47 11 -89 12 -106 5 -128 8 -136 16 -4 4 -12 7 -18 7 -6 0 -4
-5 4 -11 12 -9 12 -10 -3 -5 -10 3 -23 6 -28 6 -6 0 -8 3 -6 8 5 7 -6 9 -78
12 -19 1 -35 6 -35 10 0 5 -9 7 -20 5 -11 -2 -20 0 -20 5 0 4 -10 6 -22 2 -16
-4 -19 -2 -13 8 5 8 4 11 -2 7 -6 -4 -39 2 -74 14 -35 11 -71 22 -80 24 -30 6
-87 33 -93 44 -4 6 -12 9 -17 6 -5 -4 -9 -2 -9 2 0 5 -22 17 -49 27 -27 9 -52
24 -55 32 -3 8 -15 14 -26 14 -11 0 -20 4 -20 10 0 5 -15 16 -34 25 -19 9 -37
23 -40 31 -3 9 -10 13 -14 10 -5 -3 -19 6 -32 19 -13 13 -27 22 -31 19 -5 -3
-9 2 -9 10 0 8 -9 18 -20 21 -22 7 -209 185 -195 185 4 0 -5 11 -21 25 -16 14
-25 25 -20 25 5 0 -3 9 -18 21 -14 11 -26 25 -26 30 0 11 -4 16 -49 68 -17 19
-28 38 -25 43 3 4 1 8 -3 8 -5 0 -20 21 -33 48 -14 26 -28 49 -32 50 -5 2 -8
11 -8 21 0 9 -5 22 -10 27 -18 18 -50 87 -44 95 3 5 0 9 -6 9 -7 0 -10 7 -7
15 4 8 2 17 -4 21 -12 7 -29 47 -36 84 -2 13 -10 31 -16 39 -10 12 -9 13 3 6
13 -8 13 -7 1 9 -8 9 -16 27 -17 39 -3 25 -8 45 -19 69 -4 10 -8 29 -9 43 0
14 -4 25 -8 25 -4 0 -5 7 -2 15 4 8 1 22 -6 30 -10 12 -10 15 1 16 10 0 11 2
2 6 -9 3 -10 10 -3 24 6 10 7 19 2 19 -10 0 -10 0 -17 118 -2 51 -8 98 -11
104 -4 6 -3 8 3 5 6 -4 8 19 7 59 -2 35 0 64 4 64 4 0 6 18 4 40 -2 22 0 40 5
40 5 0 7 16 5 35 -2 19 0 35 5 35 5 0 8 18 8 39 0 22 3 37 7 35 5 -3 9 3 9 13
2 30 7 56 19 98 7 22 14 52 17 68 3 15 10 27 16 27 6 0 7 3 4 7 -4 3 -2 12 4
20 6 7 8 13 3 13 -5 0 -3 4 4 9 7 4 14 19 16 32 3 29 104 232 129 259 9 11 17
23 17 28 0 5 9 17 20 27 11 10 17 22 14 26 -3 5 2 9 10 9 9 0 16 6 16 14 0 8
18 34 40 58 22 23 40 47 40 51 0 20 259 259 276 256 4 0 11 6 16 15 5 9 13 14
18 11 5 -3 14 4 20 15 6 11 17 20 24 20 8 0 19 7 26 15 7 8 16 12 21 9 5 -3 9
0 9 6 0 6 5 8 10 5 6 -3 13 1 16 9 3 9 11 16 17 16 12 0 118 51 127 60 9 11
105 44 118 42 6 -2 12 1 12 6 0 6 6 10 13 9 34 -1 48 4 41 15 -5 8 0 9 14 6
12 -4 20 -3 18 1 -6 8 114 35 121 27 3 -3 15 1 27 9 25 18 40 19 30 3 -6 -9
-3 -9 9 0 9 8 21 11 27 7 5 -3 10 -2 10 3 0 5 18 8 41 8 22 -1 45 2 52 6 7 4
17 6 24 3 6 -2 27 -7 46 -10z m-15056 -31 c-3 -3 -12 -4 -19 -1 -8 3 -5 6 6 6
11 1 17 -2 13 -5z m168 -58 c50 -25 110 -64 135 -86 l45 -41 -66 40 c-69 43
-230 121 -247 121 -6 0 -14 5 -18 12 -13 21 58 -1 151 -46z m882 2 c-3 -7 -5
-2 -5 12 0 14 2 19 5 13 2 -7 2 -19 0 -25z m95 -260 c16 -32 24 -58 19 -58 -9
0 -72 140 -70 157 0 4 5 -3 12 -17 6 -14 24 -51 39 -82z m2673 -48 c3 -5 1
-10 -5 -10 -6 0 -15 -10 -19 -22 -8 -20 -10 -21 -16 -5 -14 34 22 67 40 37z
m-3655 -163 c0 -5 7 -15 15 -21 8 -6 18 -26 21 -43 6 -28 4 -33 -13 -33 -14 0
-22 -9 -27 -27 -10 -46 -32 -65 -93 -79 -77 -18 -128 -18 -147 2 -18 17 -21
60 -7 96 14 37 81 96 145 128 l60 30 23 -22 c13 -12 23 -26 23 -31z m-3605
-247 c-3 -5 -12 -10 -18 -10 -7 0 -6 4 3 10 19 12 23 12 15 0z m6130 -109
c236 -70 427 -233 535 -456 65 -133 85 -226 83 -385 -3 -265 -105 -483 -303
-642 -290 -234 -689 -249 -1000 -38 -91 62 -128 97 -191 183 -121 165 -172
317 -172 517 -1 109 3 137 27 220 90 301 299 518 571 594 128 35 128 35 260
31 84 -2 141 -10 190 -24z m-6145 -573 c0 -6 -6 -5 -15 2 -8 7 -15 14 -15 16
0 2 7 1 15 -2 8 -4 15 -11 15 -16z m4 -56 c2 -4 -4 -9 -15 -9 -11 -1 -17 2
-14 8 7 11 22 12 29 1z m22661 -622 c3 -6 -1 -7 -9 -4 -18 7 -21 14 -7 14 6 0
13 -4 16 -10z m2762 -225 c0 -8 -4 -12 -9 -9 -5 3 -6 10 -3 15 9 13 12 11 12
-6z m-25432 -95 c3 -5 1 -10 -4 -10 -6 0 -11 5 -11 10 0 6 2 10 4 10 3 0 8 -4
11 -10z m25423 -415 c-3 -3 -9 2 -12 12 -6 14 -5 15 5 6 7 -7 10 -15 7 -18z
m-25433 -204 c3 -5 2 -12 -3 -15 -5 -3 -9 1 -9 9 0 17 3 19 12 6z m18 -94 c3
-8 -1 -14 -8 -14 -7 0 -11 6 -8 14 3 7 6 13 8 13 2 0 5 -6 8 -13z m-2 -135
c-7 -2 -18 1 -23 6 -8 8 -4 9 13 5 13 -4 18 -8 10 -11z m6 -387 c0 -8 -4 -12
-9 -9 -5 3 -6 10 -3 15 9 13 12 11 12 -6z m-10 -220 c0 -8 -4 -12 -9 -9 -5 3
-6 10 -3 15 9 13 12 11 12 -6z m3 -371 c0 -8 -5 -12 -10 -9 -6 4 -8 11 -5 16
9 14 15 11 15 -7z m25405 -2865 c-4 -5 -12 -9 -18 -8 -9 0 -8 2 1 6 6 2 9 10
6 15 -4 7 -2 8 5 4 6 -4 9 -12 6 -17z m25 -440 c0 -6 -4 -7 -10 -4 -5 3 -10
11 -10 16 0 6 5 7 10 4 6 -3 10 -11 10 -16z m-24 -404 c-8 -8 -17 -15 -20 -15
-3 0 -3 7 0 15 4 8 13 15 21 15 12 0 12 -2 -1 -15z m4 -31 c0 -8 -19 -13 -24
-6 -3 5 1 9 9 9 8 0 15 -2 15 -3z m-25410 -558 c-7 -7 -13 -7 -20 0 -6 6 -3
10 10 10 13 0 16 -4 10 -10z m25427 -38 c-3 -8 -6 -5 -6 6 -1 11 2 17 5 13 3
-3 4 -12 1 -19z m-4507 -382 c0 -3 -4 -8 -10 -11 -5 -3 -10 -1 -10 4 0 6 5 11
10 11 6 0 10 -2 10 -4z m4492 -70 c7 4 8 2 4 -5 -10 -15 -26 -4 -25 17 1 15 2
15 6 -1 2 -9 9 -14 15 -11z m18 -223 c0 -10 -4 -14 -8 -8 -4 6 -11 13 -16 18
-5 4 -2 7 7 7 10 0 17 -8 17 -17z m-10 -68 c0 -5 -5 -3 -10 5 -5 8 -10 20 -10
25 0 6 5 3 10 -5 5 -8 10 -19 10 -25z m-19 -78 c-10 -9 -11 -8 -5 6 3 10 9 15
12 12 3 -3 0 -11 -7 -18z m-25390 -270 c-10 -9 -11 -8 -5 6 3 10 9 15 12 12 3
-3 0 -11 -7 -18z m-7 -705 c2 -4 -5 -9 -17 -9 -17 -2 -19 0 -7 7 18 12 18 12
24 2z m25401 -112 c3 -6 -1 -7 -9 -4 -18 7 -21 14 -7 14 6 0 13 -4 16 -10z
m-25395 -540 c0 -5 -2 -10 -4 -10 -3 0 -8 5 -11 10 -3 6 -1 10 4 10 6 0 11 -4
11 -10z m-10 -530 c0 -5 -2 -10 -4 -10 -3 0 -8 5 -11 10 -3 6 -1 10 4 10 6 0
11 -4 11 -10z m-5 -40 c-3 -5 -12 -10 -18 -10 -7 0 -6 4 3 10 19 12 23 12 15
0z m-10 -150 c3 -5 1 -10 -4 -10 -6 0 -11 5 -11 10 0 6 2 10 4 10 3 0 8 -4 11
-10z m6 -67 c13 -16 12 -17 -3 -4 -10 7 -18 15 -18 17 0 8 8 3 21 -13z m14
-313 c3 -5 1 -10 -4 -10 -6 0 -11 5 -11 10 0 6 2 10 4 10 3 0 8 -4 11 -10z
m-18 -442 c-3 -8 -6 -5 -6 6 -1 11 2 17 5 13 3 -3 4 -12 1 -19z m25421 5 c-12
-15 -22 -18 -14 -4 4 5 0 11 -6 14 -7 3 -3 4 9 4 17 -1 19 -4 11 -14z m16 -81
c3 -5 -1 -9 -9 -9 -8 0 -12 4 -9 9 3 4 7 8 9 8 2 0 6 -4 9 -8z m-14 -132 c0
-5 -2 -10 -4 -10 -3 0 -8 5 -11 10 -3 6 -1 10 4 10 6 0 11 -4 11 -10z m-25420
-245 c-10 -12 -10 -15 0 -15 8 0 11 -3 7 -6 -3 -3 -11 -3 -17 1 -8 5 -8 11 1
21 6 8 14 14 16 14 3 0 0 -7 -7 -15z m25414 -241 c3 -8 2 -12 -4 -9 -6 3 -10
10 -10 16 0 14 7 11 14 -7z m-25384 -318 c0 -2 -8 -10 -17 -17 -16 -13 -17
-12 -4 4 13 16 21 21 21 13z m-16 -104 c3 -5 -1 -9 -9 -9 -8 0 -12 4 -9 9 3 4
7 8 9 8 2 0 6 -4 9 -8z m-3 -89 c13 -16 12 -17 -3 -4 -10 7 -18 15 -18 17 0 8
8 3 21 -13z m25419 -198 c0 -2 -9 -3 -19 -2 -11 0 -18 5 -15 9 4 6 34 0 34 -7z
m5 -274 c3 -5 2 -12 -3 -15 -5 -3 -9 1 -9 9 0 17 3 19 12 6z m-694 -1824 c-6
-8 -8 -16 -5 -19 3 -3 1 -9 -4 -12 -6 -3 -9 0 -8 6 2 16 15 38 23 38 3 0 0 -6
-6 -13z m-23991 -21 c0 -3 -4 -8 -10 -11 -5 -3 -10 -1 -10 4 0 6 5 11 10 11 6
0 10 -2 10 -4z m24030 -10 c0 -2 -8 -10 -17 -17 -16 -13 -17 -12 -4 4 13 16
21 21 21 13z m-23876 -14 c3 -5 -1 -9 -9 -9 -8 0 -12 4 -9 9 3 4 7 8 9 8 2 0
6 -4 9 -8z m20236 -67 c11 -13 10 -14 -4 -9 -9 3 -16 10 -16 15 0 13 6 11 20
-6z m-5353 -25 c-2 -29 -17 -24 -17 6 0 14 4 23 9 19 6 -3 9 -14 8 -25z m5841
-1 c-3 -8 -7 -3 -11 10 -4 17 -3 21 5 13 5 -5 8 -16 6 -23z m128 16 c-10 -8
-24 -11 -30 -8 -6 4 0 10 14 14 36 10 37 10 16 -6z m-13006 1 c0 -2 -7 -7 -16
-10 -8 -3 -12 -2 -9 4 6 10 25 14 25 6z m1290 -6 c0 -5 -2 -10 -4 -10 -3 0 -8
5 -11 10 -3 6 -1 10 4 10 6 0 11 -4 11 -10z m2913 -5 c-3 -9 -8 -14 -10 -11
-3 3 -2 9 2 15 9 16 15 13 8 -4z m7772 6 c3 -5 2 -12 -3 -15 -5 -3 -9 1 -9 9
0 17 3 19 12 6z m115 -6 c-14 -17 0 -21 16 -5 7 7 11 6 11 -5 0 -17 -32 -20
-43 -4 -3 6 0 15 7 20 20 13 23 11 9 -6z m220 9 c0 -8 -19 -13 -24 -6 -3 5 1
9 9 9 8 0 15 -2 15 -3z m-14750 -14 c0 -5 -5 -10 -11 -10 -5 0 -7 5 -4 10 3 6
8 10 11 10 2 0 4 -4 4 -10z m12401 -7 c13 -16 12 -17 -3 -4 -10 7 -18 15 -18
17 0 8 8 3 21 -13z m533 -13 c-6 -6 -10 -3 -10 10 0 13 4 16 10 10 7 -7 7 -13
0 -20z m151 20 c-3 -5 -12 -10 -18 -10 -7 0 -6 4 3 10 19 12 23 12 15 0z
m2205 -15 c-7 -9 -15 -13 -17 -11 -6 6 20 36 26 30 2 -2 -2 -10 -9 -19z m313
5 c3 -11 4 -20 3 -20 -2 0 -11 9 -21 20 -15 17 -16 20 -3 20 9 0 18 -9 21 -20z
m84 14 c-3 -3 -12 -4 -19 -1 -8 3 -5 6 6 6 11 1 17 -2 13 -5z m188 -4 c3 -6
-1 -7 -9 -4 -18 7 -21 14 -7 14 6 0 13 -4 16 -10z m-18060 -10 c3 -5 1 -10 -4
-10 -6 0 -11 5 -11 10 0 6 2 10 4 10 3 0 8 -4 11 -10z m4855 6 c0 -3 -4 -8
-10 -11 -5 -3 -10 -1 -10 4 0 6 5 11 10 11 6 0 10 -2 10 -4z m2574 -4 c3 -5
-1 -9 -9 -9 -8 0 -12 4 -9 9 3 4 7 8 9 8 2 0 6 -4 9 -8z m559 -7 c-3 -9 -8
-14 -10 -11 -3 3 -2 9 2 15 9 16 15 13 8 -4z m3974 -7 c-3 -8 -6 -5 -6 6 -1
11 2 17 5 13 3 -3 4 -12 1 -19z m-340 6 c-3 -3 -12 -4 -19 -1 -8 3 -5 6 6 6
11 1 17 -2 13 -5z m3453 -4 c0 -5 -2 -10 -4 -10 -3 0 -8 5 -11 10 -3 6 -1 10
4 10 6 0 11 -4 11 -10z m1892 3 c-6 -2 -9 -10 -6 -15 4 -7 2 -8 -5 -4 -13 9
-5 26 12 25 9 0 8 -2 -1 -6z m-20455 -19 c-3 -3 -12 -4 -19 -1 -8 3 -5 6 6 6
11 1 17 -2 13 -5z m15188 -352 c-3 -3 -11 0 -18 7 -9 10 -8 11 6 5 10 -3 15
-9 12 -12z m3645 -3 c0 -5 -4 -9 -8 -9 -5 0 -9 7 -9 15 0 8 4 12 9 9 4 -3 8
-9 8 -15z m2150 11 c0 -5 -5 -10 -11 -10 -5 0 -7 5 -4 10 3 6 8 10 11 10 2 0
4 -4 4 -10z m313 -8 c-4 -10 -9 -10 -22 0 -9 7 -17 13 -19 14 -2 1 8 1 21 0
15 0 23 -6 20 -14z m-17133 4 c0 -3 -4 -8 -10 -11 -5 -3 -10 -1 -10 4 0 6 5
11 10 11 6 0 10 -2 10 -4z m2740 -6 c0 -5 -2 -10 -4 -10 -3 0 -8 5 -11 10 -3
6 -1 10 4 10 6 0 11 -4 11 -10z m5520 4 c0 -8 -19 -13 -24 -6 -3 5 1 9 9 9 8
0 15 -2 15 -3z m3110 0 c0 -8 -19 -13 -24 -6 -3 5 1 9 9 9 8 0 15 -2 15 -3z
m1787 0 c-3 -3 -12 -4 -19 -1 -8 3 -5 6 6 6 11 1 17 -2 13 -5z m3363 2 c0 -3
-4 -8 -10 -11 -5 -3 -10 -1 -10 4 0 6 5 11 10 11 6 0 10 -2 10 -4z m-5825
-146 c3 -6 -4 -10 -17 -10 -18 0 -20 2 -8 10 19 12 18 12 25 0z m1635 6 c0 -2
-8 -10 -17 -17 -16 -13 -17 -12 -4 4 13 16 21 21 21 13z m4750 -6 c0 -5 -5
-10 -11 -10 -5 0 -7 5 -4 10 3 6 8 10 11 10 2 0 4 -4 4 -10z m-20420 -6 c0 -8
-19 -13 -24 -6 -3 5 1 9 9 9 8 0 15 -2 15 -3z m11380 -4 c0 -5 -2 -10 -4 -10
-3 0 -8 5 -11 10 -3 6 -1 10 4 10 6 0 11 -4 11 -10z m4120 6 c0 -3 -4 -8 -10
-11 -5 -3 -10 -1 -10 4 0 6 5 11 10 11 6 0 10 -2 10 -4z m2700 0 c0 -3 -4 -8
-10 -11 -5 -3 -10 -1 -10 4 0 6 5 11 10 11 6 0 10 -2 10 -4z m1555 -6 c3 -6
-1 -7 -9 -4 -18 7 -21 14 -7 14 6 0 13 -4 16 -10z m725 6 c0 -11 -19 -15 -25
-6 -3 5 1 10 9 10 9 0 16 -2 16 -4z m1187 -2 c-3 -3 -12 -4 -19 -1 -8 3 -5 6
6 6 11 1 17 -2 13 -5z m-18780 -10 c-3 -3 -12 -4 -19 -1 -8 3 -5 6 6 6 11 1
17 -2 13 -5z"/>
<path d="M9122 26497 c-32 -34 -42 -79 -43 -184 0 -147 27 -213 91 -213 36 0
67 31 81 82 13 49 13 212 -1 257 -13 46 -48 81 -80 81 -15 0 -36 -10 -48 -23z"/>
<path d="M6457 26334 c-10 -54 -20 -107 -22 -116 -3 -15 4 -18 45 -18 l48 0
-20 88 c-35 158 -32 156 -51 46z"/>
<path d="M13724 26460 l-1 -61 66 3 c61 3 66 5 75 31 6 17 6 37 0 55 -9 25
-14 27 -75 30 l-65 3 0 -61z"/>
<path d="M25815 24291 c-3 -5 -1 -12 4 -15 5 -3 11 1 15 9 6 16 -9 21 -19 6z"/>
<path d="M25675 23681 c-3 -5 -1 -12 5 -16 5 -3 10 1 10 9 0 18 -6 21 -15 7z"/>
<path d="M25583 23637 c11 -28 -23 -39 -44 -13 -19 23 -27 20 -32 -10 -1 -10
-6 -24 -10 -31 -4 -6 -3 -15 3 -18 6 -4 10 -3 9 2 -4 16 18 56 24 46 11 -17
-21 -71 -41 -68 -9 1 -11 0 -4 -2 7 -3 10 -9 7 -14 -4 -5 -1 -9 4 -9 6 0 11 4
11 8 0 4 10 8 21 9 29 3 32 8 19 32 -9 17 -8 21 5 21 9 0 15 -9 16 -22 1 -20
2 -20 6 -4 4 14 7 16 13 6 6 -10 14 -8 34 6 26 20 33 34 16 34 -5 0 -10 -5
-10 -11 0 -8 -5 -8 -15 1 -8 7 -13 15 -11 19 2 3 -3 13 -12 21 -14 13 -15 12
-9 -3z m7 -37 c0 -5 -5 -10 -11 -10 -5 0 -7 5 -4 10 3 6 8 10 11 10 2 0 4 -4
4 -10z"/>
<path d="M25625 23629 c-9 -14 -2 -20 14 -10 8 6 9 11 3 15 -6 3 -14 1 -17 -5z"/>
<path d="M24075 23589 c-9 -14 -2 -20 14 -10 8 6 9 11 3 15 -6 3 -14 1 -17 -5z"/>
<path d="M24829 22075 c-2 -2 -62 -6 -134 -9 -71 -4 -143 -11 -160 -16 -16 -5
-46 -11 -65 -14 -61 -10 -82 -15 -94 -25 -16 -13 -86 -31 -86 -21 0 4 -9 10
-21 13 -17 5 -24 -3 -41 -41 -12 -26 -22 -49 -22 -52 -1 -3 -9 -21 -18 -40 -9
-20 -14 -47 -11 -63 l5 -27 19 21 c11 12 19 27 19 34 0 16 44 74 70 92 12 9
34 17 49 19 14 1 54 8 89 14 70 12 75 12 544 6 185 -2 356 -7 380 -12 23 -4
46 -7 50 -6 4 1 28 -18 52 -42 33 -33 46 -41 50 -30 8 21 -9 59 -38 82 -28 21
-142 61 -246 86 -36 8 -123 17 -195 21 -71 3 -144 7 -161 10 -17 2 -33 3 -35
0z"/>
<path d="M23832 21994 c10 -10 20 -15 24 -12 3 4 -5 12 -18 18 -22 12 -22 12
-6 -6z"/>
<path d="M12248 21553 c7 -3 16 -2 19 1 4 3 -2 6 -13 5 -11 0 -14 -3 -6 -6z"/>
<path d="M11386 20984 c-4 -9 -4 -19 -1 -22 2 -3 7 3 11 12 4 9 4 19 1 22 -2
3 -7 -3 -11 -12z"/>
<path d="M24627 19983 c-1 0 -25 -3 -52 -6 -28 -3 -57 -8 -66 -12 -8 -3 -35
-7 -60 -8 -25 -2 -50 -7 -57 -11 -7 -4 -16 -4 -22 -1 -5 3 -10 1 -10 -5 0 -6
-8 -10 -17 -9 -10 1 -20 0 -23 -1 -3 -1 -18 -4 -34 -6 -16 -3 -42 -12 -59 -20
-16 -9 -43 -18 -60 -20 -17 -2 -33 -8 -36 -13 -6 -10 -65 -35 -67 -29 -1 2
-10 -5 -20 -14 -11 -9 -23 -18 -29 -19 -28 -6 -73 -30 -85 -44 -7 -9 -19 -14
-27 -11 -7 3 -13 -1 -13 -10 0 -8 -4 -13 -9 -10 -5 3 -21 -6 -35 -19 -15 -14
-31 -25 -37 -25 -5 0 -9 -4 -9 -8 0 -4 -14 -16 -30 -26 -34 -20 -217 -202
-258 -256 -15 -19 -34 -42 -42 -50 -24 -22 -100 -143 -100 -157 0 -7 -4 -13
-9 -13 -5 0 -16 -16 -25 -35 -9 -19 -21 -35 -26 -35 -4 0 -7 -8 -6 -17 2 -10
-6 -30 -17 -45 -11 -14 -16 -31 -13 -37 4 -6 3 -11 -3 -11 -6 0 -14 -12 -17
-27 -4 -16 -12 -37 -18 -48 -6 -11 -11 -24 -12 -30 -4 -33 -18 -75 -24 -75 -4
0 -7 -14 -8 -32 0 -17 -4 -34 -9 -37 -8 -6 -11 -17 -20 -83 -3 -21 -9 -38 -14
-38 -6 0 -6 -8 0 -19 6 -10 8 -20 6 -23 -15 -14 -24 -288 -10 -288 6 0 3 -5
-5 -10 -12 -8 -12 -10 -1 -10 8 0 12 -2 9 -6 -3 -3 -2 -21 2 -40 5 -20 4 -34
-2 -34 -5 0 -7 -4 -4 -9 3 -5 8 -26 11 -47 5 -37 9 -60 17 -94 1 -8 8 -18 13
-22 6 -5 5 -8 -3 -8 -9 0 -9 -6 3 -24 9 -13 15 -28 14 -32 -1 -5 0 -16 3 -24
3 -8 13 -37 22 -65 10 -27 19 -54 20 -60 1 -5 10 -24 19 -42 9 -18 17 -38 17
-46 0 -8 7 -20 15 -27 8 -7 13 -16 10 -20 -3 -4 2 -13 10 -20 8 -7 15 -19 15
-28 0 -8 11 -30 25 -48 14 -18 25 -38 25 -44 0 -6 7 -13 15 -16 8 -4 12 -10 9
-15 -3 -5 -1 -9 4 -9 5 0 15 -13 22 -30 7 -16 15 -30 19 -30 4 0 14 -12 23
-27 10 -16 31 -43 48 -60 17 -18 27 -33 23 -33 -4 -1 2 -6 14 -13 12 -7 22
-16 22 -20 0 -4 15 -20 33 -35 52 -43 77 -65 105 -94 14 -16 32 -28 40 -28 7
0 13 -7 13 -15 0 -14 12 -19 33 -16 4 0 7 -3 7 -7 0 -5 16 -17 35 -28 19 -10
35 -22 35 -27 0 -4 4 -6 9 -3 5 4 11 3 13 -1 3 -8 64 -53 71 -53 3 0 22 -7 43
-16 22 -9 40 -16 42 -15 1 1 14 -7 29 -19 14 -11 35 -20 46 -20 11 0 17 -3 13
-7 -6 -7 52 -29 104 -39 14 -2 32 -7 40 -11 8 -3 26 -8 40 -10 14 -2 37 -8 52
-14 15 -6 32 -8 37 -4 6 3 11 1 11 -5 0 -6 10 -8 26 -4 15 4 25 3 21 -2 -3 -5
5 -9 16 -10 61 -3 99 -9 104 -17 3 -5 9 -4 13 2 5 9 19 9 48 3 23 -6 68 -8 99
-6 32 2 95 6 140 8 45 2 88 8 94 12 11 7 51 13 107 17 12 0 22 4 22 8 0 7 46
21 80 24 21 2 114 37 120 46 3 3 16 10 30 14 39 12 169 75 175 86 4 5 11 7 16
4 5 -4 9 -1 9 5 0 6 12 16 28 22 15 7 42 25 60 40 18 15 40 28 48 28 8 0 13 4
9 9 -3 5 4 12 15 16 11 3 20 11 20 16 0 5 7 9 16 9 8 0 13 4 10 9 -3 5 4 16
17 24 33 22 166 154 161 160 -3 2 7 12 21 21 14 9 25 22 25 29 0 7 11 21 25
31 14 10 25 23 25 29 0 6 12 26 27 46 16 20 27 40 25 44 -1 4 5 10 13 13 8 4
15 13 15 20 0 15 28 65 43 75 5 3 9 10 9 15 1 10 11 37 43 109 34 75 77 207
77 233 0 12 3 22 7 22 3 0 7 14 8 32 0 18 6 34 11 36 8 2 8 12 2 28 -6 15 -6
23 -1 19 9 -5 11 8 14 92 0 18 3 30 6 28 9 -5 5 224 -4 264 -5 23 -4 31 4 27
6 -4 5 6 -3 26 -8 18 -12 44 -11 58 1 14 -1 30 -5 35 -4 6 -11 37 -15 70 -4
33 -12 66 -17 73 -6 6 -7 12 -4 12 4 0 0 10 -8 22 -9 12 -16 30 -16 39 0 9
-21 63 -46 120 -25 57 -48 113 -51 124 -3 11 -11 25 -18 30 -6 6 -18 21 -25
35 -7 14 -26 42 -42 63 -16 20 -26 37 -21 37 4 0 0 5 -10 11 -9 6 -15 14 -12
20 4 5 -1 9 -9 9 -10 0 -13 6 -10 15 4 9 0 15 -9 15 -14 0 -32 26 -29 42 1 4
-6 9 -16 12 -10 3 -25 18 -34 33 -27 45 -150 160 -227 213 -29 19 -61 43 -73
53 -12 9 -26 17 -33 17 -6 0 -29 13 -51 29 -21 16 -43 30 -49 32 -17 4 -69 29
-102 49 -18 11 -33 17 -33 14 0 -4 -7 -1 -15 6 -8 7 -15 10 -15 6 0 -4 -15 1
-32 11 -18 9 -41 16 -52 14 -11 -2 -16 2 -12 8 4 7 1 9 -8 5 -8 -3 -21 -2 -28
2 -7 5 -17 9 -23 10 -27 3 -75 17 -75 23 0 3 -10 6 -22 7 -22 0 -77 7 -163 20
-35 5 -274 12 -278 7z m-910 -1045 c-3 -8 -6 -5 -6 6 -1 11 2 17 5 13 3 -3 4
-12 1 -19z m65 -76 c13 -20 30 -46 38 -58 8 -12 26 -40 39 -63 14 -22 28 -41
33 -41 4 0 8 -7 8 -15 0 -8 4 -15 9 -15 5 0 16 -16 26 -36 9 -19 23 -38 31
-41 8 -3 14 -10 14 -15 0 -9 58 -97 71 -108 3 -3 23 -30 44 -60 21 -30 43 -58
49 -62 6 -4 7 -8 2 -8 -5 0 3 -12 18 -26 14 -15 26 -30 26 -35 0 -4 12 -20 28
-35 15 -15 20 -23 12 -20 -8 4 -1 -4 15 -18 17 -14 26 -26 20 -26 -5 0 -2 -5
8 -11 9 -5 17 -17 17 -24 0 -8 5 -15 10 -15 6 0 10 -5 10 -10 0 -6 11 -22 25
-36 14 -14 25 -28 25 -32 0 -4 16 -25 35 -47 19 -22 35 -45 35 -52 0 -6 4 -13
9 -15 12 -4 121 -157 121 -169 0 -6 5 -7 10 -4 6 3 10 -1 10 -10 0 -8 13 -29
28 -45 16 -16 42 -50 57 -75 16 -25 33 -45 38 -45 4 0 5 -4 2 -10 -3 -5 -1
-10 5 -10 6 0 8 -4 5 -10 -3 -5 1 -10 10 -10 22 0 55 18 55 31 0 14 48 79 74
101 12 10 17 18 11 18 -7 0 -7 3 0 8 16 11 79 93 104 135 12 20 26 37 29 37 4
0 18 17 32 37 14 20 42 55 62 78 21 22 38 43 38 47 0 4 16 29 35 55 20 27 50
67 68 91 18 24 47 59 65 79 18 20 30 38 27 41 -4 4 15 28 95 119 11 12 20 25
20 27 0 5 129 186 140 196 3 3 20 28 39 55 19 28 36 52 37 54 1 1 8 0 14 -4 7
-4 8 -11 2 -18 -10 -12 -31 -49 -75 -132 -12 -22 -28 -44 -34 -48 -7 -4 -13
-17 -13 -27 0 -11 -5 -20 -12 -20 -6 0 -9 -3 -5 -6 3 -3 -4 -23 -17 -43 -13
-20 -26 -46 -30 -58 -4 -13 -12 -23 -17 -23 -6 0 -8 -4 -5 -9 3 -4 -3 -16 -14
-26 -11 -10 -20 -26 -20 -35 0 -10 -7 -23 -15 -30 -8 -7 -13 -16 -10 -20 3 -4
-1 -10 -9 -13 -8 -3 -17 -19 -21 -36 -3 -16 -16 -42 -28 -57 -12 -15 -22 -34
-23 -42 -2 -7 -10 -22 -18 -31 -9 -10 -16 -23 -16 -29 0 -6 -15 -35 -33 -64
-18 -29 -51 -87 -72 -128 -21 -41 -53 -99 -71 -129 -18 -30 -30 -59 -27 -64 3
-6 2 -7 -3 -4 -6 3 -19 -14 -30 -39 -10 -24 -22 -44 -26 -44 -4 0 -4 -7 -1
-17 4 -10 2 -14 -4 -10 -7 4 -14 -5 -18 -23 -4 -16 -11 -32 -16 -36 -5 -3 -23
-33 -41 -67 -17 -34 -35 -65 -40 -68 -5 -3 -9 -9 -9 -13 2 -10 -31 -70 -43
-78 -6 -4 -7 -8 -3 -8 9 0 -34 -83 -45 -88 -5 -2 -8 -13 -8 -25 0 -11 -3 -17
-7 -14 -7 7 -33 -38 -33 -58 0 -7 -6 -18 -14 -24 -11 -9 -15 -7 -21 11 -4 13
-7 27 -6 31 1 4 -7 17 -17 27 -10 11 -25 33 -33 48 -7 15 -21 39 -30 53 -10
14 -21 37 -24 51 -4 14 -14 35 -23 45 -10 10 -18 25 -20 32 -1 7 -14 29 -27
49 -14 20 -25 42 -25 48 0 6 -7 17 -15 24 -8 7 -13 16 -10 20 2 4 -4 15 -15
25 -11 10 -20 26 -20 36 0 10 -5 21 -10 24 -6 4 -8 10 -5 15 3 4 -2 13 -10 20
-8 7 -15 18 -15 25 0 8 -3 15 -7 17 -13 5 -72 125 -66 132 3 3 -2 8 -11 12 -9
3 -14 10 -11 14 2 4 -4 15 -15 25 -11 10 -20 26 -20 35 0 10 -7 23 -15 30 -9
7 -13 15 -11 18 3 3 -3 17 -14 32 -11 16 -20 35 -20 43 0 8 -7 20 -15 27 -8 7
-15 19 -15 26 0 8 -3 14 -7 14 -10 0 -43 58 -43 75 0 7 -7 18 -15 25 -8 7 -12
16 -9 21 3 5 0 9 -5 9 -6 0 -11 6 -11 14 0 8 -3 16 -7 18 -5 2 -21 30 -37 63
-16 33 -42 81 -58 107 -16 26 -27 51 -24 57 3 5 -1 11 -9 15 -8 3 -15 12 -15
20 0 8 -3 16 -7 18 -5 2 -20 28 -36 58 -15 30 -43 82 -63 115 -19 33 -38 68
-41 78 -3 9 -10 17 -16 17 -6 0 -8 3 -4 6 3 4 -6 25 -22 48 -16 22 -31 51 -35
63 -11 35 18 19 46 -25z m1915 -82 c-14 -23 -23 -25 -33 -8 -4 6 -3 8 3 5 6
-4 13 3 16 14 3 12 10 18 16 15 7 -5 7 -13 -2 -26z"/>
<path d="M25090 17899 c0 -11 4 -18 10 -14 5 3 7 12 3 20 -7 21 -13 19 -13 -6z"/>
<path d="M24410 17886 c0 -2 8 -10 18 -17 15 -13 16 -12 3 4 -13 16 -21 21
-21 13z"/>
<path d="M25071 17874 c0 -11 3 -14 6 -6 3 7 2 16 -1 19 -3 4 -6 -2 -5 -13z"/>
<path d="M24370 17846 c0 -2 8 -10 18 -17 15 -13 16 -12 3 4 -13 16 -21 21
-21 13z"/>
<path d="M24425 17800 c-3 -5 -1 -10 4 -10 6 0 11 5 11 10 0 6 -2 10 -4 10 -3
0 -8 -4 -11 -10z"/>
<path d="M24400 17771 c0 -6 4 -12 8 -15 5 -3 9 1 9 9 0 8 -4 15 -9 15 -4 0
-8 -4 -8 -9z"/>
<path d="M25036 17752 c-3 -5 1 -9 9 -9 8 0 12 4 9 9 -3 4 -7 8 -9 8 -2 0 -6
-4 -9 -8z"/>
<path d="M24566 17648 c3 -5 10 -6 15 -3 13 9 11 12 -6 12 -8 0 -12 -4 -9 -9z"/>
<path d="M24540 17626 c0 -2 7 -6 15 -10 8 -3 15 -1 15 4 0 6 -7 10 -15 10 -8
0 -15 -2 -15 -4z"/>
<path d="M24590 17620 c-9 -6 -10 -10 -3 -10 6 0 15 5 18 10 8 12 4 12 -15 0z"/>
<path d="M24500 17596 c0 -2 8 -10 18 -17 15 -13 16 -12 3 4 -13 16 -21 21
-21 13z"/>
<path d="M24826 17498 c3 -5 10 -6 15 -3 13 9 11 12 -6 12 -8 0 -12 -4 -9 -9z"/>
<path d="M24694 17372 c4 -7 2 -12 -4 -12 -7 0 -6 -5 2 -14 7 -8 17 -11 23 -8
5 3 4 7 -3 10 -7 2 -10 8 -7 12 3 5 0 12 -6 16 -8 4 -9 3 -5 -4z"/>
<path d="M24780 17370 c0 -5 5 -10 11 -10 5 0 7 5 4 10 -3 6 -8 10 -11 10 -2
0 -4 -4 -4 -10z"/>
<path d="M24754 17332 c23 -26 23 -26 23 -7 0 8 -3 13 -5 10 -3 -3 -12 1 -21
7 -10 8 -9 4 3 -10z"/>
<path d="M24665 17291 c-3 -5 -2 -12 3 -15 5 -3 9 1 9 9 0 17 -3 19 -12 6z"/>
<path d="M23536 19503 c-6 -14 -5 -15 5 -6 7 7 10 15 7 18 -3 3 -9 -2 -12 -12z"/>
<path d="M25965 19491 c-6 -11 13 -26 22 -17 4 3 1 6 -6 6 -7 0 -9 5 -6 10 3
6 4 10 1 10 -3 0 -7 -4 -11 -9z"/>
<path d="M26236 19088 c3 -4 9 -8 15 -8 5 0 9 4 9 8 0 5 -7 9 -15 9 -8 0 -12
-4 -9 -9z"/>
<path d="M26353 18695 c0 -7 8 -10 19 -7 10 2 18 6 18 7 0 1 -8 5 -18 7 -11 3
-19 0 -19 -7z"/>
<path d="M26383 18535 c0 -8 4 -12 9 -9 5 3 6 10 3 15 -9 13 -12 11 -12 -6z"/>
<path d="M26383 18330 c-1 -10 5 -21 14 -24 12 -5 13 -4 5 7 -7 8 -9 16 -6 19
3 3 1 8 -3 11 -5 3 -9 -3 -10 -13z"/>
<path d="M26300 17760 c-9 -6 -10 -10 -3 -10 6 0 15 5 18 10 8 12 4 12 -15 0z"/>
<path d="M26198 17593 c6 -2 18 -2 25 0 6 3 1 5 -13 5 -14 0 -19 -2 -12 -5z"/>
<path d="M26040 17401 c0 -6 4 -13 10 -16 6 -3 7 1 4 9 -7 18 -14 21 -14 7z"/>
<path d="M25943 17275 c0 -8 4 -12 9 -9 5 3 6 10 3 15 -9 13 -12 11 -12 -6z"/>
<path d="M25714 17018 l-19 -23 23 19 c21 18 27 26 19 26 -2 0 -12 -10 -23
-22z"/>
<path d="M25596 16953 c-6 -14 -5 -15 5 -6 7 7 10 15 7 18 -3 3 -9 -2 -12 -12z"/>
<path d="M25376 16843 c-6 -14 -5 -15 5 -6 7 7 10 15 7 18 -3 3 -9 -2 -12 -12z"/>
<path d="M25314 16829 c-4 -7 -3 -9 4 -5 5 3 13 0 15 -6 4 -9 6 -10 6 -1 1 17
-16 25 -25 12z"/>
<path d="M24239 16828 c0 -2 -2 -11 -4 -21 -3 -15 -1 -16 11 -6 7 6 11 15 8
20 -5 9 -13 12 -15 7z"/>
<path d="M25245 16820 c-3 -5 -1 -10 4 -10 6 0 11 5 11 10 0 6 -2 10 -4 10 -3
0 -8 -4 -11 -10z"/>
<path d="M25200 16800 c0 -5 5 -10 11 -10 5 0 7 5 4 10 -3 6 -8 10 -11 10 -2
0 -4 -4 -4 -10z"/>
<path d="M25168 16793 c7 -3 16 -2 19 1 4 3 -2 6 -13 5 -11 0 -14 -3 -6 -6z"/>
<path d="M24636 16728 c3 -5 10 -6 15 -3 13 9 11 12 -6 12 -8 0 -12 -4 -9 -9z"/>
<path d="M11894 19136 c-404 -92 -674 -483 -624 -903 53 -444 469 -769 913
-713 226 28 436 156 559 342 72 108 80 126 113 233 84 275 11 581 -188 791
-79 84 -176 157 -252 189 -137 59 -177 67 -320 71 -96 2 -159 -1 -201 -10z
m-114 -697 c0 -5 44 -65 98 -133 53 -69 114 -149 135 -178 72 -101 112 -141
133 -134 10 3 51 58 89 121 39 63 91 148 116 190 25 41 49 79 53 82 12 12 -58
-150 -95 -219 -11 -21 -20 -40 -20 -43 0 -6 -25 -63 -92 -208 l-55 -118 -30
48 c-16 26 -63 107 -105 178 -41 72 -112 193 -157 270 -89 151 -100 172 -82
161 7 -4 12 -11 12 -17z"/>
</g>
</svg>
