<svg width="77" height="50" viewBox="0 0 77 50" fill="none" xmlns="http://www.w3.org/2000/svg">
<path d="M0 25C-6.03529e-07 38.8071 11.1929 50 25 50C38.8071 50 50 38.8071 50 25C50 11.1929 38.8071 6.03529e-07 25 0C11.1929 -6.03529e-07 6.03529e-07 11.1929 0 25Z" fill="url(#paint0_linear_43_291)"/>
<circle cx="25" cy="25" r="17" fill="#0D0000"/>
<path fill-rule="evenodd" clip-rule="evenodd" d="M76.9008 24.8C76.9008 21.1 73.9008 18 70.1008 18C66.6136 18 63.8001 20.6107 63.3605 23.8999H50V25.8999H63.3903C63.9148 29.0944 66.6845 31.5999 70.1008 31.5999C73.8008 31.5999 76.9008 28.6 76.9008 24.8Z" fill="url(#paint1_linear_43_291)"/>
<defs>
<linearGradient id="paint0_linear_43_291" x1="25" y1="0" x2="25" y2="50" gradientUnits="userSpaceOnUse">
<stop stop-color="#FF0000"/>
<stop offset="1" stop-color="#690000"/>
</linearGradient>
<linearGradient id="paint1_linear_43_291" x1="63.4504" y1="18" x2="63.4504" y2="31.6001" gradientUnits="userSpaceOnUse">
<stop stop-color="#FF0000"/>
<stop offset="1" stop-color="#690000"/>
</linearGradient>
</defs>
</svg>
