<svg width="27" height="26" viewBox="0 0 27 26" fill="none" xmlns="http://www.w3.org/2000/svg">
<path d="M18.4777 8.9583L5.77594 3.90016L7.29338 0.0896196L19.9952 5.14776C24.2291 6.83381 25.6716 9.37041 24.3228 12.7575L23.817 14.0277C22.4682 17.4149 19.6768 18.2654 15.4428 16.5794L14.1727 16.0736L15.6901 12.263L16.9603 12.7688C17.8071 13.106 18.3991 12.8513 18.7363 12.0045L19.2421 10.7343C19.5793 9.88751 19.3245 9.29551 18.4777 8.9583ZM10.3621 14.5561L9.85631 15.8263L4.7756 13.803L6.79885 8.72232L14.4199 11.7572L12.9025 15.5677L10.3621 14.5561ZM9.3505 17.0965L7.83305 20.907L2.75234 18.8837L4.26978 15.0732L9.3505 17.0965Z" fill="#FFF0F0"/>
</svg>
