<svg width="28" height="28" viewBox="0 0 28 28" fill="none" xmlns="http://www.w3.org/2000/svg">
<path d="M14.3089 7.86185L2.32478 14.4422L0.350682 10.8469L12.3348 4.26661C16.3295 2.07317 19.2043 2.57434 20.959 5.77011L21.617 6.96852C23.3718 10.1643 22.2518 12.8589 18.2571 15.0523L17.0587 15.7104L15.0846 12.1151L16.283 11.4571C17.082 11.0184 17.2621 10.3996 16.8234 9.60065L16.1654 8.40223C15.7267 7.60329 15.1079 7.42316 14.3089 7.86185ZM13.4635 17.6845L14.1215 18.8829L9.32783 21.515L6.6957 16.7213L13.8862 12.7732L15.8603 16.3684L13.4635 17.6845ZM14.7795 20.0813L16.7536 23.6765L11.96 26.3087L9.98586 22.7134L14.7795 20.0813Z" fill="#FFF0F0"/>
</svg>
