<svg width="15" height="2073" viewBox="0 0 15 2073" fill="none" xmlns="http://www.w3.org/2000/svg">
<path fill-rule="evenodd" clip-rule="evenodd" d="M5.20892e-06 0L0 329.567L7.50002 343.441L15 329.567V0L7.50002 14.6347L5.20892e-06 0ZM5.20892e-06 345.912L0 675.478L7.50002 689.353L15 675.478V345.912L7.50002 360.547L5.20892e-06 345.912ZM5.20892e-06 1037.74L0 1367.3L7.50002 1381.18L15 1367.3V1037.74L7.50002 1052.37L5.20892e-06 1037.74ZM0 1713.21L5.20892e-06 1383.65L7.50002 1398.28L15 1383.65V1713.21L7.50002 1727.09L0 1713.21ZM5.20892e-06 1729.56L0 2059.13L7.50002 2073L15 2059.13V1729.56L7.50002 1744.19L5.20892e-06 1729.56ZM0 1021.39L5.20892e-06 691.824L7.50002 706.458L15 691.824V1021.39L7.50002 1035.26L0 1021.39Z" fill="#FFF0F0"/>
</svg>
